<svg width="25" height="25" viewBox="0 0 25 25" fill="none" xmlns="http://www.w3.org/2000/svg">
<path fill-rule="evenodd" clip-rule="evenodd" d="M11.2056 2.87225C12.3777 1.70015 13.9675 1.04167 15.6251 1.04167H18.7501C19.3254 1.04167 19.7917 1.50804 19.7917 2.08334V6.25C19.7917 6.8253 19.3254 7.29167 18.7501 7.29167H15.6251V9.375H18.7501C19.0708 9.375 19.3737 9.52279 19.5711 9.77562C19.7685 10.0284 19.8384 10.3581 19.7606 10.6693L18.719 14.836C18.603 15.2997 18.1864 15.625 17.7084 15.625H15.6251V22.9167C15.6251 23.492 15.1587 23.9583 14.5834 23.9583H10.4167C9.84143 23.9583 9.37506 23.492 9.37506 22.9167V15.625H7.29173C6.71643 15.625 6.25006 15.1586 6.25006 14.5833V10.4167C6.25006 9.84137 6.71643 9.375 7.29173 9.375H9.37506V7.29167C9.37506 5.63407 10.0335 4.04436 11.2056 2.87225ZM15.6251 3.125C14.52 3.125 13.4602 3.56399 12.6788 4.34539C11.8974 5.12679 11.4584 6.1866 11.4584 7.29167V10.4167C11.4584 10.992 10.992 11.4583 10.4167 11.4583H8.33339V13.5417H10.4167C10.992 13.5417 11.4584 14.008 11.4584 14.5833V21.875H13.5417V14.5833C13.5417 14.008 14.0081 13.5417 14.5834 13.5417H16.8951L17.4159 11.4583H14.5834C14.0081 11.4583 13.5417 10.992 13.5417 10.4167V7.29167C13.5417 6.73914 13.7612 6.20923 14.1519 5.81853C14.5426 5.42783 15.0725 5.20834 15.6251 5.20834H17.7084V3.125H15.6251Z" fill="#FEFEFE"/>
</svg>
