<?xml version="1.0" encoding="UTF-8" standalone="no"?>
<!DOCTYPE svg PUBLIC "-//W3C//DTD SVG 1.1//EN" "http://www.w3.org/Graphics/SVG/1.1/DTD/svg11.dtd">
<svg width="100%" height="100%" viewBox="0 0 266 40" version="1.1" xmlns="http://www.w3.org/2000/svg" xmlns:xlink="http://www.w3.org/1999/xlink" xml:space="preserve" xmlns:serif="http://www.serif.com/" style="fill-rule:evenodd;clip-rule:evenodd;stroke-linejoin:round;stroke-miterlimit:2;">
    <g transform="matrix(1,0,0,1,-117.258,-280.028)">
        <g transform="matrix(0,-1,-1,0,208.172,299.471)">
            <path d="M2.612,18.809L18.835,18.809L18.835,7.981L2.641,-2.612C2.589,4.338 2.585,11.646 2.612,18.809" style="fill:rgb(2,226,172);fill-rule:nonzero;"/>
        </g>
        <g transform="matrix(1,0,0,1,159.745,280.635)">
            <path d="M0,15.977L0,0L-10.773,0L-10.773,12.326C-10.773,14.266 -9.219,15.847 -7.279,15.875C-5.079,15.909 -2.637,15.943 0,15.977" style="fill:rgb(2,226,172);fill-rule:nonzero;"/>
        </g>
        <g transform="matrix(0,-1,-1,0,185.19,283.319)">
            <path d="M-13.511,2.683L2.683,2.683L2.683,13.511L-13.427,13.511C-13.459,10.033 -13.489,6.398 -13.511,2.683" style="fill:rgb(2,226,172);fill-rule:nonzero;"/>
        </g>
        <g transform="matrix(0,-1,-1,0,227.93,283.301)">
            <path d="M-13.32,2.492L2.665,2.492L2.665,13.32L-13.493,13.32C-13.453,9.54 -13.396,5.903 -13.32,2.492" style="fill:rgb(2,226,172);fill-rule:nonzero;"/>
        </g>
        <g transform="matrix(1,0,0,1,240.778,281.009)">
            <path d="M0,15.069C9.302,14.498 18.529,13.496 26.513,12.465C26.124,11.238 25.618,10.071 24.995,8.964C23.338,6.017 20.971,3.724 17.896,2.086C14.82,0.447 11.239,-0.373 7.15,-0.373L-8.263,-0.373L-8.263,15.442C-5.203,15.34 -2.417,15.217 0,15.069" style="fill:rgb(2,226,172);fill-rule:nonzero;"/>
        </g>
        <g transform="matrix(1,0,0,1,139.55,296.53)">
            <path d="M0,7.16L0,-0.221L0.027,-0.221L0.027,-0.425L-11.464,-0.425L-11.464,-7.277L4.115,-7.277L4.115,-15.895L-22.292,-15.895L-22.292,23.055L-11.464,23.055L-11.464,7.806L0.027,7.806L0.027,7.16L0,7.16Z" style="fill:rgb(2,226,172);fill-rule:nonzero;"/>
        </g>
        <g transform="matrix(1,0,0,1,302.764,317.43)">
            <path d="M0,-34.861C-3.039,-36.554 -6.4,-37.402 -10.083,-37.402C-13.729,-37.402 -17.081,-36.554 -20.137,-34.861C-23.195,-33.167 -25.616,-30.8 -27.402,-27.761C-27.972,-26.793 -28.44,-25.78 -28.828,-24.731C-18.505,-26.174 -11.265,-27.47 -10.432,-27.47C-4.886,-27.47 -0.391,-22.975 -0.391,-17.43C-0.391,-11.885 -4.886,-7.389 -10.432,-7.389C-11.265,-7.389 -18.494,-8.681 -28.805,-10.123C-28.421,-9.096 -27.96,-8.103 -27.402,-7.154C-25.616,-4.116 -23.195,-1.74 -20.137,-0.027C-17.081,1.685 -13.729,2.541 -10.083,2.541C-6.436,2.541 -3.085,1.685 -0.027,-0.027C3.03,-1.74 5.442,-4.116 7.21,-7.154C8.979,-10.193 9.861,-13.628 9.861,-17.458C9.861,-21.288 8.979,-24.723 7.21,-27.761C5.442,-30.8 3.039,-33.167 0,-34.861" style="fill:rgb(148,81,235);fill-rule:nonzero;"/>
        </g>
        <g transform="matrix(1,0,0,1,171.678,319.887)">
            <path d="M0,-16.635C-0.004,-14.581 -0.509,-12.978 -1.519,-11.821C-2.531,-10.66 -4.031,-10.08 -6.021,-10.08C-8.011,-10.08 -9.492,-10.652 -10.469,-11.793C-11.42,-12.906 -11.904,-14.478 -11.928,-16.5C-14.422,-16.468 -16.743,-16.435 -18.85,-16.404C-21.043,-16.371 -22.718,-14.368 -22.291,-12.217C-21.943,-10.465 -21.374,-8.887 -20.579,-7.484C-19.161,-4.979 -17.208,-3.092 -14.723,-1.822C-12.236,-0.55 -9.41,0.085 -6.241,0.085C-3.075,0.085 -0.192,-0.55 2.404,-1.822C5.001,-3.092 7.054,-4.988 8.564,-7.511C10.074,-10.034 10.829,-13.082 10.829,-16.656L10.829,-16.72C7.114,-16.697 3.479,-16.668 0,-16.635" style="fill:rgb(2,226,172);fill-rule:nonzero;"/>
        </g>
        <g transform="matrix(1,0,0,1,381.002,297.901)">
            <path d="M0,4.199C-1.161,2.707 -2.542,1.548 -4.144,0.719C-5.746,-0.111 -7.781,-0.947 -10.249,-1.795C-11.907,-2.384 -13.158,-2.873 -14.007,-3.26C-14.853,-3.647 -15.562,-4.106 -16.133,-4.641C-16.705,-5.174 -16.989,-5.81 -16.989,-6.547C-16.989,-7.431 -16.732,-8.112 -16.216,-8.591C-15.701,-9.069 -15.038,-9.309 -14.227,-9.309C-13.158,-9.309 -12.284,-9.014 -11.603,-8.425C-10.922,-7.836 -10.563,-6.952 -10.525,-5.773L1.242,-5.773C1.058,-9.604 -0.388,-12.577 -3.094,-14.696C-5.802,-16.813 -9.42,-17.872 -13.95,-17.872C-16.751,-17.872 -19.255,-17.411 -21.464,-16.491C-23.674,-15.571 -25.406,-14.216 -26.657,-12.43C-27.91,-10.644 -28.535,-8.498 -28.535,-5.994C-28.535,-3.527 -27.955,-1.528 -26.795,-0C-25.636,1.529 -24.272,2.689 -22.706,3.481C-21.142,4.273 -19.088,5.092 -16.548,5.939C-14.153,6.713 -12.422,7.413 -11.354,8.039C-10.286,8.665 -9.751,9.549 -9.751,10.69C-9.751,11.574 -10.075,12.264 -10.719,12.762C-11.363,13.26 -12.182,13.508 -13.177,13.508C-14.281,13.508 -15.185,13.195 -15.884,12.569C-16.584,11.943 -16.989,10.948 -17.099,9.586L-28.646,9.586C-28.426,13.6 -26.861,16.684 -23.95,18.84C-21.041,20.994 -17.32,22.071 -12.79,22.071C-9.808,22.071 -7.22,21.538 -5.028,20.47C-2.837,19.401 -1.161,17.946 0,16.104C1.16,14.263 1.74,12.182 1.74,9.861C1.74,7.579 1.16,5.69 0,4.199" style="fill:rgb(148,81,235);fill-rule:nonzero;"/>
        </g>
        <g transform="matrix(1,0,0,1,240.669,319.215)">
            <path d="M0,-15.299C-2.388,-15.445 -5.137,-15.568 -8.153,-15.669L-8.153,0.37L7.26,0.37C11.311,0.37 14.875,-0.467 17.951,-2.144C21.025,-3.82 23.401,-6.13 25.077,-9.077C25.726,-10.218 26.245,-11.42 26.643,-12.682C18.623,-13.717 9.348,-14.726 0,-15.299" style="fill:rgb(2,226,172);fill-rule:nonzero;"/>
        </g>
        <g transform="matrix(1,0,0,1,341.717,301.381)">
            <path d="M0,-2.762C-1.603,-3.591 -3.638,-4.428 -6.105,-5.276C-7.763,-5.865 -9.015,-6.354 -9.862,-6.741C-10.709,-7.127 -11.418,-7.586 -11.989,-8.121C-12.561,-8.655 -12.845,-9.29 -12.845,-10.028C-12.845,-10.911 -12.588,-11.592 -12.072,-12.072C-11.557,-12.549 -10.894,-12.789 -10.083,-12.789C-9.015,-12.789 -8.141,-12.494 -7.459,-11.906C-6.777,-11.317 -6.419,-10.433 -6.382,-9.253L5.386,-9.253C5.201,-13.084 3.756,-16.058 1.05,-18.176C-1.657,-20.293 -5.275,-21.353 -9.806,-21.353C-12.606,-21.353 -15.111,-20.892 -17.32,-19.972C-19.529,-19.051 -21.263,-17.697 -22.514,-15.91C-23.767,-14.124 -24.392,-11.979 -24.392,-9.475C-24.392,-7.007 -23.811,-5.008 -22.651,-3.481C-21.491,-1.951 -20.129,-0.791 -18.562,0.001C-16.998,0.793 -14.944,1.611 -12.403,2.459C-10.009,3.232 -8.278,3.932 -7.21,4.558C-6.142,5.184 -5.607,6.068 -5.607,7.21C-5.607,8.093 -5.932,8.784 -6.574,9.282C-7.219,9.779 -8.038,10.027 -9.033,10.027C-10.138,10.027 -11.041,9.715 -11.74,9.089C-12.44,8.463 -12.845,7.467 -12.955,6.105L-24.502,6.105C-24.281,10.12 -22.717,13.204 -19.807,15.359C-16.897,17.513 -13.177,18.591 -8.646,18.591C-5.664,18.591 -3.075,18.057 -0.885,16.989C1.307,15.921 2.982,14.466 4.144,12.624C5.304,10.783 5.885,8.702 5.885,6.381C5.885,4.098 5.304,2.21 4.144,0.718C2.982,-0.774 1.602,-1.933 0,-2.762" style="fill:rgb(148,81,235);fill-rule:nonzero;"/>
        </g>
        <g transform="matrix(0.552207,0.833707,0.833707,-0.552207,215.435,297.757)">
            <path d="M-1.995,-12.742L17.743,-12.742L23.723,-3.713L10.208,5.238C6.443,-0.18 2.266,-6.351 -1.995,-12.742" style="fill:rgb(2,226,172);fill-rule:nonzero;"/>
        </g>
        <g transform="matrix(0,1,1,0,202.991,305.937)">
            <path d="M-2.8,-13.628L13.647,-13.628L13.647,-2.8L-2.815,-2.8C-2.82,-6.403 -2.814,-10.032 -2.8,-13.628" style="fill:rgb(2,226,172);fill-rule:nonzero;"/>
        </g>
        <g transform="matrix(0,-1,-1,0,291.417,294.008)">
            <path d="M-5.992,-5.993C-9.302,-5.993 -11.985,-3.31 -11.985,-0.001C-11.985,3.309 -9.302,5.992 -5.992,5.992C-2.682,5.992 0,3.309 0,-0.001C0,-3.31 -2.682,-5.993 -5.992,-5.993" style="fill:rgb(2,226,172);fill-rule:nonzero;"/>
        </g>
        <g transform="matrix(1,0,0,1,255.08,291.784)">
            <path d="M0,16.432C2.328,14.514 3.493,11.775 3.493,8.216C3.493,4.66 2.328,1.92 0,0C-2.329,-1.919 -5.478,-2.879 -9.447,-2.879L-13.653,-2.879L-13.653,19.311L-9.447,19.311C-5.478,19.311 -2.329,18.353 0,16.432" style="fill:rgb(17,15,76);fill-rule:nonzero;"/>
        </g>
    </g>
</svg>
