<svg width="448" height="86" viewBox="0 0 448 86" fill="none" xmlns="http://www.w3.org/2000/svg">
<path fill-rule="evenodd" clip-rule="evenodd" d="M206.24 23.1035H212.415V23.5976C212.415 24.7204 212.283 25.7141 212.018 26.5784C211.76 27.3787 211.324 28.1276 210.712 28.8244C209.324 30.3861 207.559 31.166 205.417 31.166C203.326 31.166 201.536 30.4115 200.045 28.9013C198.554 27.3849 197.809 25.5654 197.809 23.442C197.809 21.274 198.567 19.4347 200.084 17.9251C201.6 16.4087 203.446 15.6505 205.62 15.6505C206.788 15.6505 207.878 15.8885 208.891 16.3634C209.86 16.8389 210.811 17.6114 211.747 18.6802L210.141 20.2195C208.914 18.5866 207.42 17.7701 205.659 17.7701C204.078 17.7701 202.752 18.3156 201.681 19.4061C200.609 20.4774 200.074 21.8196 200.074 23.4327C200.074 25.0973 200.671 26.4686 201.865 27.5467C202.981 28.5467 204.191 29.0464 205.495 29.0464C206.604 29.0464 207.601 28.6732 208.485 27.9267C209.369 27.1735 209.863 26.2727 209.966 25.2231H206.24V23.1035Z" fill="white"/>
<mask id="mask0" mask-type="alpha" maskUnits="userSpaceOnUse" x="162" y="3" width="149" height="34">
<path d="M162.579 37H310.514V3H162.579V37Z" fill="white"/>
</mask>
<g mask="url(#mask0)">
<path fill-rule="evenodd" clip-rule="evenodd" d="M220.405 30.8854H222.66V15.9409H220.405V30.8854Z" fill="white"/>
<path fill-rule="evenodd" clip-rule="evenodd" d="M235.529 18.0607V30.8857H233.274V18.0607H229.838V15.9411H238.955V18.0607H235.529Z" fill="white"/>
<path fill-rule="evenodd" clip-rule="evenodd" d="M256.634 16.7394V19.4064C255.331 18.3153 253.982 17.7704 252.589 17.7704C251.052 17.7704 249.758 18.3221 248.707 19.4256C247.649 20.5223 247.119 21.8645 247.119 23.4522C247.119 25.0201 247.649 26.343 248.707 27.4205C249.765 28.4986 251.062 29.0373 252.598 29.0373C253.392 29.0373 254.066 28.9078 254.621 28.6499C254.931 28.5209 255.252 28.3467 255.584 28.1273C255.916 27.9078 256.267 27.6431 256.634 27.3331V30.0584C255.344 30.7906 253.988 31.157 252.569 31.157C250.433 31.157 248.61 30.4118 247.1 28.9208C245.597 27.4174 244.845 25.6041 244.845 23.4813C244.845 21.5775 245.474 19.8807 246.732 18.3897C248.281 16.5639 250.285 15.6501 252.744 15.6501C254.086 15.6501 255.383 16.0134 256.634 16.7394Z" fill="white"/>
<path fill-rule="evenodd" clip-rule="evenodd" d="M266.369 20.9885C266.369 22.6388 266.924 23.9959 268.033 25.0604C269.137 26.1236 270.412 26.6555 271.857 26.6555C273.425 26.6555 274.747 26.1136 275.826 25.0306C276.903 23.9351 277.442 22.6004 277.442 21.0269C277.442 19.4349 276.909 18.1002 275.845 17.0233C274.787 15.9402 273.477 15.3984 271.915 15.3984C270.36 15.3984 269.046 15.9402 267.975 17.0233C266.904 18.094 266.369 19.4151 266.369 20.9885ZM264.094 20.9643C264.094 18.8608 264.865 17.0537 266.407 15.5435C267.943 14.0339 269.788 13.2788 271.944 13.2788C274.074 13.2788 275.899 14.0401 277.423 15.5633C278.952 17.0859 279.716 18.9154 279.716 21.0511C279.716 23.1999 278.948 25.0232 277.413 26.5203C275.871 28.0237 274.009 28.7757 271.828 28.7757C269.898 28.7757 268.166 28.1074 266.63 26.7714C264.939 25.2941 264.094 23.3586 264.094 20.9643Z" fill="#0FCE7C"/>
<path fill-rule="evenodd" clip-rule="evenodd" d="M286.359 30.8854H288.615V15.9409H286.359V30.8854Z" fill="white"/>
<path fill-rule="evenodd" clip-rule="evenodd" d="M297.359 30.8856V14.9244L308.258 26.3265V15.9411H310.513V31.7957L299.615 20.4221V30.8856H297.359Z" fill="white"/>
<path fill-rule="evenodd" clip-rule="evenodd" d="M176.969 10.3058V7.11866C176.969 6.6134 176.559 6.20299 176.053 6.20299C175.547 6.20299 175.137 6.6134 175.137 7.11866V10.3759C175.603 10.3244 176.076 10.2953 176.555 10.2953C176.694 10.2953 176.832 10.3015 176.969 10.3058Z" fill="white"/>
<path fill-rule="evenodd" clip-rule="evenodd" d="M181.401 17.7381L181.549 17.8813C182.951 19.2427 183.722 21.0691 183.722 23.0232C183.722 24.8948 183.005 26.666 181.703 28.0107L181.631 28.0839L182.223 28.6579L183.703 29.8284C185.458 27.9853 186.426 25.5718 186.426 23.0232C186.426 20.3518 185.377 17.8553 183.474 15.9849L182.545 16.8603L181.401 17.7381Z" fill="#0FCE7C"/>
<path fill-rule="evenodd" clip-rule="evenodd" d="M183.573 29.9651L183.645 29.8913C183.664 29.8708 183.683 29.8491 183.702 29.8287L182.224 28.6576L183.573 29.9651Z" fill="#0FCE7C"/>
<path fill-rule="evenodd" clip-rule="evenodd" d="M184.702 34.5016H176.555C170.226 34.5016 165.077 29.3523 165.077 23.0232C165.077 16.6935 170.226 11.5448 176.555 11.5448C179.183 11.5448 181.676 12.4214 183.699 14.037L178.107 19.2043C177.628 19.009 177.104 18.9005 176.555 18.9005C174.282 18.9005 172.432 20.7498 172.432 23.0232C172.432 25.2966 174.282 27.1459 176.555 27.1459C176.96 27.1459 177.351 27.0864 177.721 26.9772L184.702 32.232V34.5016ZM176.555 24.6475C175.66 24.6475 174.931 23.919 174.931 23.0232C174.931 22.1274 175.66 21.3983 176.555 21.3983C177.451 21.3983 178.18 22.1274 178.18 23.0232C178.18 23.919 177.451 24.6475 176.555 24.6475ZM180.678 23.0232C180.678 22.2135 180.443 21.4584 180.039 20.8211L183.374 17.7393L183.402 17.7691L187.348 14.0494L186.439 13.1399C183.799 10.5002 180.289 9.04639 176.555 9.04639C168.848 9.04639 162.579 15.316 162.579 23.0232C162.579 30.6536 168.726 36.8717 176.329 36.9938V37H187.2V30.9858L179.871 25.4689C180.378 24.7845 180.678 23.9382 180.678 23.0232Z" fill="white"/>
<path fill-rule="evenodd" clip-rule="evenodd" d="M190.089 7.80623L189.088 8.80745L188.086 7.80623L189.088 6.80501L190.089 7.80623Z" fill="#25E899"/>
<path fill-rule="evenodd" clip-rule="evenodd" d="M180.556 7.92482L180.077 8.40342L179.598 7.92482L180.077 7.44621L180.556 7.92482Z" fill="#25E899"/>
<path fill-rule="evenodd" clip-rule="evenodd" d="M185.528 3.72173C185.528 3.3231 185.205 3.00011 184.806 3.00011C184.407 3.00011 184.084 3.3231 184.084 3.72173C184.084 4.12036 184.407 4.44335 184.806 4.44335C185.205 4.44335 185.528 4.12036 185.528 3.72173Z" fill="#25E899"/>
<path fill-rule="evenodd" clip-rule="evenodd" d="M171.718 17.7761C171.212 17.7761 170.801 17.3657 170.801 16.8598V7.11915C170.801 6.61265 171.212 6.20287 171.718 6.20287C172.223 6.20287 172.633 6.61265 172.633 7.11915V16.8598C172.633 17.3657 172.223 17.7761 171.718 17.7761Z" fill="white"/>
</g>
<path d="M110.012 72.4313C109.348 71.7736 108.551 71.445 107.62 71.445H98.3869C98.2154 71.445 98.0683 71.3845 97.9452 71.2634C97.8222 71.1425 97.7608 70.9951 97.7608 70.8212V70.0616C97.7608 69.8955 97.8222 69.7518 97.9452 69.6307C98.0683 69.5098 98.2154 69.4491 98.3869 69.4491H110.291C110.321 69.4491 110.345 69.4396 110.364 69.4207C110.382 69.4021 110.392 69.381 110.392 69.3584V67.0906C110.392 67.0604 110.382 67.0378 110.364 67.0226C110.345 67.0076 110.321 67 110.291 67H98.3869C97.4479 67 96.6486 67.329 95.9892 67.9866C95.3297 68.6443 95 69.4378 95 70.3677V70.5151C95 71.4526 95.3297 72.25 95.9892 72.9077C96.6486 73.5653 97.4479 73.894 98.3869 73.894H107.62C107.784 73.894 107.927 73.9526 108.05 74.0698C108.173 74.187 108.234 74.3326 108.234 74.5065V75.2661C108.234 75.4401 108.173 75.5856 108.05 75.7029C107.927 75.82 107.783 75.8786 107.62 75.8786H95.7043C95.682 75.8786 95.6612 75.8881 95.6429 75.907C95.6242 75.9259 95.6149 75.9507 95.6149 75.9809V78.2487C95.6149 78.2712 95.6242 78.2923 95.6429 78.3109C95.6616 78.3298 95.682 78.3393 95.7043 78.3393H107.62C108.551 78.3393 109.348 78.0088 110.012 77.3471C110.675 76.6858 111.007 75.8902 111.007 74.9604V74.8126C111.006 73.8827 110.675 73.089 110.012 72.4313Z" fill="white"/>
<path d="M130.056 67H127.474C127.452 67 127.431 67.0076 127.413 67.0226C127.394 67.0378 127.385 67.0604 127.385 67.0906V69.9706C127.385 70.22 127.258 70.4092 127.005 70.5377L121.852 72.7032L116.699 70.5377C116.446 70.4092 116.319 70.2203 116.319 69.9706V67.0906C116.319 67.0604 116.312 67.0378 116.297 67.0226C116.281 67.0076 116.259 67 116.229 67H113.647C113.625 67 113.604 67.0076 113.586 67.0226C113.567 67.0378 113.558 67.0604 113.558 67.0906V70.3902C113.558 70.8819 113.692 71.3314 113.96 71.7394C114.229 72.1478 114.594 72.4499 115.056 72.6464L120.466 74.9481V78.2367C120.466 78.267 120.475 78.2917 120.494 78.3106C120.512 78.3295 120.537 78.339 120.566 78.339H123.148C123.171 78.339 123.191 78.3295 123.21 78.3106C123.229 78.2917 123.238 78.2673 123.238 78.2367V74.9484L128.648 72.658C129.11 72.4539 129.475 72.1496 129.743 71.7453C130.012 71.3409 130.145 70.8932 130.145 70.4015V67.0906C130.145 67.0604 130.136 67.0378 130.117 67.0226C130.099 67.0076 130.078 67 130.056 67Z" fill="white"/>
<path d="M149.235 67H146.653C146.623 67 146.601 67.0095 146.586 67.0284C146.571 67.0473 146.564 67.0681 146.564 67.0906V75.8896H145.48C145.278 75.8896 145.107 75.7989 144.965 75.6173L139.958 68.1905C139.421 67.4273 138.68 67.0302 137.734 67H133.419C133.389 67 133.365 67.0095 133.346 67.0284C133.328 67.0473 133.318 67.0681 133.318 67.0906V78.248C133.318 78.2706 133.328 78.2917 133.346 78.3103C133.365 78.3292 133.389 78.3386 133.419 78.3386H136.001C136.024 78.3386 136.044 78.3292 136.063 78.3103C136.081 78.2917 136.091 78.2706 136.091 78.248V69.4491H137.175C137.376 69.4491 137.547 69.5437 137.689 69.7326L142.697 77.1594C143.233 77.923 143.975 78.3161 144.921 78.3386H149.236C149.265 78.3386 149.288 78.3292 149.303 78.3103C149.317 78.2917 149.325 78.2706 149.325 78.248V67.0906C149.325 67.0681 149.317 67.0473 149.303 67.0284C149.287 67.0095 149.265 67 149.235 67Z" fill="white"/>
<path d="M167.898 67H152.082C152.052 67 152.029 67.0095 152.015 67.0284C152 67.0473 151.992 67.0681 151.992 67.0906V69.3584C151.992 69.381 152 69.4021 152.015 69.4207C152.029 69.4396 152.052 69.4491 152.082 69.4491H158.609V78.248C158.609 78.2706 158.617 78.2917 158.632 78.3103C158.646 78.3292 158.669 78.3386 158.699 78.3386H161.281C161.311 78.3386 161.333 78.3292 161.348 78.3103C161.363 78.2917 161.37 78.2706 161.37 78.248V69.4491H167.898C167.928 69.4491 167.952 69.4396 167.97 69.4207C167.989 69.4018 167.998 69.381 167.998 69.3584V67.0906C167.998 67.0681 167.989 67.0473 167.97 67.0284C167.952 67.0095 167.928 67 167.898 67Z" fill="white"/>
<path d="M187.077 67H184.494C184.472 67 184.452 67.0095 184.433 67.0284C184.415 67.0473 184.406 67.0681 184.406 67.0906V71.4446H173.943V67.0906C173.943 67.0681 173.934 67.0473 173.915 67.0284C173.897 67.0098 173.872 67 173.843 67H171.26C171.238 67 171.217 67.0095 171.199 67.0284C171.181 67.0473 171.171 67.0681 171.171 67.0906V78.248C171.171 78.2706 171.181 78.2917 171.199 78.3103C171.217 78.3292 171.238 78.3386 171.26 78.3386H173.843C173.872 78.3386 173.897 78.3292 173.915 78.3103C173.934 78.2914 173.943 78.2706 173.943 78.248V73.894H184.406V78.248C184.406 78.2706 184.415 78.2917 184.433 78.3103C184.452 78.3292 184.472 78.3386 184.494 78.3386H187.077C187.107 78.3386 187.131 78.3292 187.149 78.3103C187.168 78.2914 187.178 78.2706 187.178 78.248V67.0906C187.178 67.0681 187.168 67.0473 187.149 67.0284C187.131 67.0095 187.107 67 187.077 67Z" fill="white"/>
<path d="M206.188 67H193.658C192.726 67 191.928 67.3287 191.265 67.9863C190.602 68.644 190.271 69.4378 190.271 70.3677V74.9597C190.271 75.8973 190.602 76.6947 191.265 77.3523C191.928 78.01 192.726 78.339 193.658 78.339H206.188C206.21 78.339 206.23 78.3295 206.249 78.3106C206.267 78.2917 206.277 78.2709 206.277 78.2484V75.9806C206.277 75.9504 206.268 75.9278 206.249 75.9125C206.23 75.8976 206.21 75.8899 206.188 75.8899H193.658C193.486 75.8899 193.341 75.8295 193.222 75.7086C193.103 75.5878 193.043 75.444 193.043 75.2777V73.894H206.18C206.21 73.894 206.232 73.8846 206.246 73.8656C206.261 73.8467 206.269 73.826 206.269 73.8034V71.5356C206.269 71.5054 206.261 71.4828 206.246 71.4675C206.232 71.4526 206.21 71.445 206.18 71.445H193.043V70.0616C193.043 69.8952 193.103 69.7518 193.222 69.6307C193.341 69.5098 193.486 69.4491 193.658 69.4491H206.188C206.21 69.4491 206.23 69.4396 206.249 69.4207C206.267 69.4021 206.277 69.381 206.277 69.3584V67.0906C206.277 67.0681 206.268 67.0473 206.249 67.0284C206.23 67.0098 206.21 67 206.188 67Z" fill="white"/>
<path d="M225.276 67H209.46C209.43 67 209.407 67.0095 209.392 67.0284C209.378 67.0473 209.37 67.0681 209.37 67.0906V69.3584C209.37 69.381 209.378 69.4021 209.392 69.4207C209.407 69.4396 209.43 69.4491 209.46 69.4491H215.987V78.248C215.987 78.2706 215.995 78.2917 216.009 78.3103C216.025 78.3292 216.047 78.3386 216.077 78.3386H218.658C218.689 78.3386 218.711 78.3292 218.726 78.3103C218.74 78.2917 218.748 78.2706 218.748 78.248V69.4491H225.275C225.306 69.4491 225.329 69.4396 225.348 69.4207C225.367 69.4018 225.376 69.381 225.376 69.3584V67.0906C225.376 67.0681 225.367 67.0473 225.348 67.0284C225.33 67.0095 225.306 67 225.276 67Z" fill="white"/>
<path d="M231.288 67.0226C231.272 67.0076 231.25 67 231.221 67H228.639C228.608 67 228.586 67.0076 228.571 67.0226C228.557 67.0378 228.549 67.0604 228.549 67.0906V78.248C228.549 78.2706 228.557 78.2917 228.571 78.3103C228.586 78.3292 228.608 78.3386 228.639 78.3386H231.221C231.25 78.3386 231.272 78.3292 231.288 78.3103C231.303 78.2914 231.31 78.2706 231.31 78.248V67.0906C231.31 67.0607 231.303 67.0378 231.288 67.0226Z" fill="white"/>
<path d="M238.417 69.7557C238.305 69.6272 238.167 69.5628 238.003 69.5628H234.65C234.62 69.5628 234.596 69.5533 234.577 69.5344C234.559 69.5158 234.549 69.4947 234.549 69.4721V67.2043C234.549 67.1818 234.559 67.161 234.577 67.1421C234.596 67.1235 234.62 67.1137 234.65 67.1137H238.193C239.087 67.1137 239.858 67.4805 240.507 68.2136L241.367 69.268L239.691 71.3203L238.417 69.7557ZM244.608 68.2023C245.257 67.4766 246.032 67.1137 246.934 67.1137H250.466C250.496 67.1137 250.518 67.1213 250.533 67.1363C250.548 67.1516 250.555 67.1741 250.555 67.2043V69.4721C250.555 69.4947 250.548 69.5158 250.533 69.5344C250.518 69.5533 250.496 69.5628 250.466 69.5628H247.113C246.948 69.5628 246.811 69.6272 246.699 69.7557L244.228 72.7718L246.71 75.8104C246.822 75.9316 246.956 75.9921 247.113 75.9921H250.466C250.496 75.9921 250.518 76.0015 250.533 76.0204C250.548 76.0393 250.555 76.0641 250.555 76.094V78.3618C250.555 78.3843 250.548 78.4054 250.533 78.424C250.518 78.4429 250.496 78.4524 250.466 78.4524H246.934C246.032 78.4524 245.261 78.0858 244.62 77.3525L242.563 74.8354L240.507 77.3525C239.858 78.0858 239.083 78.4524 238.182 78.4524H234.65C234.62 78.4524 234.597 78.4429 234.582 78.424C234.568 78.4051 234.56 78.3807 234.56 78.3501V76.0824C234.56 76.0598 234.568 76.039 234.582 76.0201C234.597 76.0012 234.62 75.9917 234.65 75.9917H238.003C238.159 75.9917 238.298 75.9276 238.417 75.7989L240.842 72.8282L244.608 68.2023Z" fill="white"/>
<path d="M86.3956 13.4517V13.4329C86.3956 12.48 85.7071 11.6503 84.6982 11.6503C83.6981 11.6503 83.0287 12.4616 83.0287 13.4137V13.4329C83.0287 14.3854 83.7173 15.2155 84.7166 15.2155C85.7263 15.2155 86.3956 14.4041 86.3956 13.4517ZM81.1522 13.4517V13.4329C81.1522 11.5371 82.6797 10 84.7166 10C86.7539 10 88.263 11.5179 88.263 13.4137V13.4329C88.263 15.3282 86.7351 16.8657 84.6982 16.8657C82.6609 16.8657 81.1522 15.3474 81.1522 13.4517Z" fill="white"/>
<path d="M91.8827 13.723C92.9768 13.723 93.6933 13.1384 93.6933 12.2707V12.2519C93.6933 11.3086 92.986 10.8183 91.9203 10.8183H90.2513V13.723H91.8827ZM89.5059 10.1298H91.9771C93.467 10.1298 94.4479 10.9215 94.4479 12.2231V12.2423C94.4479 13.6666 93.2599 14.402 91.8543 14.402H90.2513V16.7316H89.5059V10.1298Z" fill="white"/>
<path d="M95.7457 10.1298H100.518V10.8088H96.4911V13.0628H100.094V13.7418H96.4911V16.0526H100.565V16.7316H95.7457V10.1298Z" fill="white"/>
<path d="M102.004 10.1298H102.702L106.861 15.4204V10.1298H107.587V16.7316H106.993L102.731 11.3182V16.7316H102.004V10.1298Z" fill="white"/>
<path d="M81.6342 24.3846L82.6527 23.1678C83.3037 23.6868 84.0298 23.9603 84.7936 23.9603C85.2842 23.9603 85.5485 23.7904 85.5485 23.508V23.4889C85.5485 23.2154 85.3314 23.0646 84.4357 22.8567C83.0302 22.5364 81.9453 22.1397 81.9453 20.7818V20.763C81.9453 19.5374 82.917 18.6505 84.5013 18.6505C85.6237 18.6505 86.501 18.9524 87.2176 19.5278L86.3027 20.8197C85.6993 20.3955 85.0391 20.1688 84.4541 20.1688C84.0106 20.1688 83.7939 20.3575 83.7939 20.5934V20.6122C83.7939 20.9141 84.0202 21.0461 84.9351 21.2536C86.4534 21.5839 87.3967 22.0741 87.3967 23.3097V23.3285C87.3967 24.6773 86.3311 25.479 84.7276 25.479C83.5584 25.479 82.4455 25.1111 81.6342 24.3846Z" fill="white"/>
<path d="M94.2421 22.0833V22.0645C94.2421 20.565 93.148 19.339 91.6393 19.339C90.1302 19.339 89.0554 20.5462 89.0554 22.0457V22.0645C89.0554 23.564 90.149 24.7904 91.6577 24.7904C93.1672 24.7904 94.2421 23.5832 94.2421 22.0833ZM88.282 22.0833V22.0645C88.282 20.244 89.6496 18.6505 91.6577 18.6505C93.6671 18.6505 95.0154 20.2255 95.0154 22.0457V22.0645C95.0154 23.8847 93.6479 25.4786 91.6393 25.4786C89.6304 25.4786 88.282 23.9035 88.282 22.0833Z" fill="white"/>
<path d="M96.4225 22.6093V18.771H97.1678V22.5625C97.1678 23.9865 97.9224 24.7882 99.186 24.7882C100.402 24.7882 101.176 24.0521 101.176 22.6093V18.771H101.921V22.553C101.921 24.4767 100.817 25.4764 99.1675 25.4764C97.5353 25.4764 96.4225 24.4767 96.4225 22.6093Z" fill="white"/>
<path d="M106.399 22.1379C107.39 22.1379 108.097 21.6281 108.097 20.7796V20.7604C108.097 19.9498 107.475 19.4596 106.409 19.4596H104.372V22.1379H106.399ZM103.627 18.771H106.465C107.277 18.771 107.927 19.0161 108.342 19.4308C108.663 19.7515 108.852 20.2137 108.852 20.7324V20.7516C108.852 21.8452 108.097 22.4862 107.06 22.6749L109.087 25.3724H108.172L106.258 22.8073H104.372V25.3724H103.627V18.771Z" fill="white"/>
<path d="M110.098 22.0833V22.0645C110.098 20.1972 111.494 18.6505 113.437 18.6505C114.634 18.6505 115.351 19.0747 116.012 19.6973L115.502 20.244C114.945 19.7165 114.323 19.339 113.427 19.339C111.966 19.339 110.872 20.5271 110.872 22.0457V22.0645C110.872 23.5924 111.975 24.7904 113.427 24.7904C114.332 24.7904 114.927 24.4413 115.558 23.8375L116.049 24.3186C115.361 25.0164 114.606 25.4786 113.408 25.4786C111.503 25.4786 110.098 23.9791 110.098 22.0833Z" fill="white"/>
<path d="M117.293 18.771H122.065V19.45H118.038V21.704H121.641V22.383H118.038V24.6939H122.112V25.3728H117.293V18.771Z" fill="white"/>
<path d="M81.3376 30.7248V30.706C81.3376 28.7822 82.8183 27.2731 84.8173 27.2731C86.1664 27.2731 87.0341 27.8389 87.6187 28.6499L86.242 29.7159C85.8645 29.2441 85.4306 28.9425 84.7988 28.9425C83.8744 28.9425 83.2238 29.7251 83.2238 30.6872V30.706C83.2238 31.6964 83.8744 32.4698 84.7988 32.4698C85.4874 32.4698 85.8929 32.1491 86.2888 31.6677L87.6655 32.6489C87.0437 33.507 86.204 34.1388 84.7421 34.1388C82.8559 34.1388 81.3376 32.6957 81.3376 30.7248Z" fill="white"/>
<path d="M94.4089 30.7245V30.7057C94.4089 29.2062 93.3149 27.9802 91.8061 27.9802C90.2971 27.9802 89.2222 29.1874 89.2222 30.6869V30.7057C89.2222 32.2052 90.3158 33.4316 91.8246 33.4316C93.334 33.4316 94.4089 32.2244 94.4089 30.7245ZM88.4489 30.7245V30.7057C88.4489 28.8851 89.8164 27.2917 91.8246 27.2917C93.8339 27.2917 95.1822 28.8667 95.1822 30.6869V30.7057C95.1822 32.5259 93.8147 34.1198 91.8061 34.1198C89.7972 34.1198 88.4489 32.5447 88.4489 30.7245Z" fill="white"/>
<path d="M96.7007 27.4029H97.446V33.3162H101.162V34.0047H96.7007V27.4029Z" fill="white"/>
<path d="M102.477 27.4029H103.222V33.3162H106.938V34.0047H102.477V27.4029Z" fill="white"/>
<path d="M108.262 27.4029H113.035V28.0819H109.008V30.336H112.611V31.0149H109.008V33.3258H113.082V34.0047H108.262V27.4029Z" fill="white"/>
<path d="M114.224 30.7245V30.7057C114.224 28.8383 115.62 27.2917 117.563 27.2917C118.76 27.2917 119.477 27.7159 120.137 28.3385L119.628 28.8851C119.071 28.3577 118.449 27.9802 117.553 27.9802C116.092 27.9802 114.997 29.1682 114.997 30.6869V30.7057C114.997 32.2336 116.101 33.4316 117.553 33.4316C118.458 33.4316 119.053 33.0825 119.684 32.4787L120.175 32.9598C119.487 33.6576 118.732 34.1198 117.534 34.1198C115.629 34.1198 114.224 32.6203 114.224 30.7245Z" fill="white"/>
<path d="M123.171 28.0915H120.955V27.4029H126.142V28.0915H123.926V34.0047H123.171V28.0915Z" fill="white"/>
<path d="M128.284 27.4029H127.538V34.0047H128.284V27.4029Z" fill="white"/>
<path d="M129.597 27.4029H130.426L132.775 33.0898L135.133 27.4029H135.934L133.095 34.0515H132.435L129.597 27.4029Z" fill="white"/>
<path d="M137.181 27.4029H141.953V28.0819H137.926V30.336H141.529V31.0149H137.926V33.3258H142V34.0047H137.181V27.4029Z" fill="white"/>
<path d="M20.9964 15.9705C17.5724 15.9705 14.787 18.7559 14.787 22.1799C14.787 25.6036 17.5724 28.3893 20.9964 28.3893C24.4205 28.3893 27.2058 25.6036 27.2058 22.1799C27.2058 18.7559 24.4205 15.9705 20.9964 15.9705ZM20.9964 34.1764C14.3816 34.1764 9 28.7948 9 22.1799C9 15.5647 14.3816 10.1831 20.9964 10.1831C27.6117 10.1831 32.9932 15.5647 32.9932 22.1799C32.9932 28.7948 27.6117 34.1764 20.9964 34.1764Z" fill="white"/>
<path d="M68.6254 34.1787C62.0101 34.1787 56.6285 28.7971 56.6285 22.1819C56.6285 15.567 62.0101 10.1854 68.6254 10.1854V15.9728C65.2013 15.9728 62.416 18.7582 62.416 22.1819C62.416 25.6059 65.2013 28.3912 68.6254 28.3912V34.1787Z" fill="white"/>
<path d="M38.7647 22.0428H32.9773C32.9773 15.4279 38.3589 10.0464 44.9741 10.0464V15.8334C41.5505 15.8334 38.7647 18.6187 38.7647 22.0428Z" fill="white"/>
<path d="M45.0025 33.9117V28.1242C48.4266 28.1242 51.2119 25.3389 51.2119 21.9156H56.9993C56.9993 28.5301 51.6174 33.9117 45.0025 33.9117Z" fill="white"/>
<g clip-path="url(#clip0)">
<path d="M17.8196 76.793C20.1857 76.793 22.1039 74.8709 22.1039 72.5C22.1039 70.129 20.1857 68.207 17.8196 68.207C15.4535 68.207 13.5353 70.129 13.5353 72.5C13.5353 74.8709 15.4535 76.793 17.8196 76.793Z" fill="#EFEFEF"/>
<path d="M17.8196 59.441C10.6253 59.441 4.78717 65.291 4.78717 72.5C4.78717 79.709 10.6253 85.559 17.8196 85.559C25.0139 85.559 30.852 79.709 30.852 72.5C30.852 65.291 25.0229 59.441 17.8196 59.441ZM17.8196 81.104C13.0773 81.104 9.23311 77.252 9.23311 72.5C9.23311 67.748 13.0773 63.896 17.8196 63.896C22.5619 63.896 26.4061 67.748 26.4061 72.5C26.4151 77.252 22.5619 81.104 17.8196 81.104Z" fill="white"/>
<path d="M50.0639 80.249C48.9322 80.798 47.6657 81.104 46.3185 81.104C41.5762 81.104 37.732 77.252 37.732 72.5C37.732 67.748 41.5762 63.896 46.3185 63.896C47.6837 63.896 48.9771 64.22 50.1267 64.787L53.3781 61.52C51.3392 60.206 48.9232 59.441 46.3185 59.441C39.1242 59.441 33.2861 65.291 33.2861 72.5C33.2861 79.709 39.1242 85.559 46.3185 85.559C48.8334 85.559 51.1776 84.848 53.1625 83.615L50.0639 80.249Z" fill="white"/>
<path d="M72.2127 59.441H61.7401H58.8929H57.4558V85.559H61.7401V63.734H72.2127V59.441Z" fill="white"/>
<path d="M63.6719 70.3498V74.6428H67.9562V70.3498H63.6719Z" fill="#EFEFEF"/>
</g>
<g clip-path="url(#clip1)">
<path d="M357.463 14.4406C357.14 14.3994 356.816 14.3788 356.483 14.3788C356.109 14.3788 355.735 14.4097 355.371 14.4612C352.714 14.8215 350.461 16.4587 349.218 18.7548C349.006 19.146 348.824 19.5682 348.672 19.9903C347.369 18.1679 345.368 16.8911 343.064 16.5822C342.7 16.5307 342.326 16.4998 341.953 16.4998C341.619 16.4998 341.296 16.5204 340.972 16.5616C340.932 16.8911 340.912 17.2206 340.912 17.5604C340.912 17.9413 340.942 18.3223 340.993 18.693C341.488 22.4615 344.418 25.4371 348.106 25.9417C348.126 25.9417 348.157 25.9519 348.177 25.9519V33.4271H350.259V23.8412C350.279 23.8412 350.309 23.8309 350.329 23.8309C354.028 23.3264 356.948 20.3404 357.443 16.5822C357.493 16.2115 357.524 15.8306 357.524 15.4496C357.524 15.0995 357.504 14.77 357.463 14.4406Z" fill="white"/>
<path d="M342.64 9.75569C342.912 10.0337 343.337 10.0955 343.691 9.91014C345.327 9.02465 347.207 8.52012 349.187 8.52012C350.895 8.52012 352.522 8.90109 353.997 9.57036C354.331 9.7248 354.725 9.65273 354.987 9.38502L356.978 7.35663C357.402 6.92418 357.291 6.20343 356.766 5.91513C354.502 4.70016 351.926 4 349.187 4C346.146 4 343.296 4.8649 340.861 6.35788C340.366 6.66677 340.285 7.35663 340.689 7.77878L342.64 9.75569Z" fill="white"/>
<path d="M361.677 11.8459L359.726 13.8331C359.454 14.1111 359.393 14.5435 359.575 14.9039C360.444 16.5719 360.939 18.4871 360.939 20.5052C360.939 22.5233 360.444 24.4384 359.575 26.1064C359.393 26.4565 359.454 26.8889 359.726 27.1772L361.677 29.1644C362.081 29.5763 362.768 29.4939 363.071 28.9894C364.536 26.508 365.385 23.6147 365.385 20.5155C365.385 17.4162 364.536 14.5126 363.071 12.0415C362.768 11.5164 362.081 11.4237 361.677 11.8459Z" fill="white"/>
<path d="M354.987 31.6047C354.725 31.337 354.331 31.2649 353.997 31.4194C352.532 32.0886 350.905 32.4696 349.187 32.4696C347.207 32.4696 345.327 31.9651 343.691 31.0796C343.347 30.8942 342.923 30.956 342.64 31.234L340.689 33.2212C340.285 33.6331 340.366 34.3332 340.861 34.6421C343.296 36.1351 346.136 37 349.187 37C351.926 37 354.502 36.2999 356.766 35.0746C357.291 34.7863 357.402 34.0655 356.978 33.6331L354.987 31.6047Z" fill="white"/>
<path d="M338.285 26.405C338.547 26.1373 338.618 25.7357 338.467 25.3959C337.81 23.903 337.436 22.2452 337.436 20.4949C337.436 18.7445 337.81 17.097 338.467 15.5938C338.618 15.254 338.547 14.8524 338.285 14.5847L336.304 12.5666C335.88 12.1342 335.172 12.2474 334.89 12.7828C333.687 15.0789 333 17.7045 333 20.4949C333 23.2852 333.687 25.9108 334.89 28.2172C335.172 28.7526 335.88 28.8658 336.304 28.4334L338.285 26.405Z" fill="white"/>
<path d="M381.876 20.5669C380.997 19.7432 379.744 19.2387 378.157 19.0842C376.874 18.9504 375.985 18.6827 375.52 18.2811C375.075 17.9002 374.853 17.4471 374.853 16.8808C374.853 16.2939 375.085 15.8512 375.57 15.5423C376.106 15.2025 376.823 15.0275 377.702 15.0275C378.42 15.0275 379.006 15.1613 379.461 15.429C379.915 15.6967 380.299 16.0983 380.602 16.6028C380.724 16.8293 380.895 17.0044 381.118 17.1382C381.33 17.2618 381.572 17.3339 381.825 17.3339C382.078 17.3339 382.31 17.2721 382.522 17.1382C382.866 16.8911 383.048 16.5513 383.048 16.1498C383.048 15.8615 382.957 15.5629 382.765 15.2643C382.219 14.3891 381.542 13.6992 380.764 13.2256C379.966 12.7417 378.986 12.5048 377.844 12.5048C376.813 12.5048 375.863 12.6696 375.025 12.9991C374.166 13.3388 373.479 13.8331 372.984 14.4817C372.478 15.1407 372.216 15.9335 372.216 16.8293C372.216 18.0958 372.711 19.1769 373.681 20.0212C374.631 20.8449 375.934 21.3392 377.551 21.5039C378.602 21.6069 379.38 21.8952 379.875 22.3585C380.36 22.8115 380.592 23.3367 380.592 23.975C380.592 24.6237 380.32 25.1179 379.764 25.4989C379.168 25.9005 378.43 26.1064 377.561 26.1064C376.813 26.1064 376.126 25.9417 375.51 25.6225C374.914 25.3136 374.52 24.9429 374.328 24.531C374.216 24.2633 374.034 24.0471 373.792 23.8824C373.549 23.7176 373.297 23.6456 373.024 23.6456C372.913 23.6456 372.822 23.6559 372.751 23.6764C372.448 23.7485 372.206 23.8824 372.014 24.078C371.811 24.2942 371.71 24.5516 371.71 24.8399C371.71 24.9944 371.751 25.1591 371.832 25.3651C372.236 26.3432 372.984 27.1463 374.055 27.7538C375.106 28.3407 376.278 28.6496 377.561 28.6496C378.531 28.6496 379.461 28.4746 380.309 28.1348C381.178 27.7847 381.886 27.2493 382.411 26.5388C382.947 25.8181 383.22 24.9429 383.22 23.9442C383.24 22.5335 382.785 21.4112 381.876 20.5669Z" fill="white"/>
<path d="M395.729 16.5616C395.476 16.3042 395.143 16.1704 394.739 16.1704C394.355 16.1704 394.021 16.3042 393.758 16.5616C393.496 16.819 393.364 17.1588 393.364 17.5707V23.5117C393.364 23.9544 393.253 24.3457 393.021 24.6958C392.788 25.0562 392.455 25.3445 392.031 25.5504C391.606 25.7666 391.121 25.8696 390.596 25.8696C389.676 25.8696 388.969 25.6122 388.433 25.0871C387.898 24.5722 387.635 23.7794 387.635 22.7395V17.5604C387.635 17.1588 387.504 16.8293 387.241 16.5616C386.978 16.2939 386.655 16.1601 386.261 16.1601C385.867 16.1601 385.544 16.2939 385.281 16.5616C385.018 16.8293 384.887 17.1588 384.887 17.5604V22.7395C384.887 23.9236 385.119 24.9635 385.564 25.8078C386.018 26.6624 386.655 27.3317 387.473 27.7847C388.272 28.2275 389.191 28.454 390.192 28.454C390.919 28.454 391.606 28.3201 392.253 28.0627C392.687 27.8877 393.081 27.6612 393.445 27.3832C393.506 27.5994 393.617 27.7847 393.779 27.9495C394.041 28.2172 394.365 28.351 394.759 28.351C395.163 28.351 395.496 28.2172 395.749 27.9495C396.002 27.6817 396.133 27.3523 396.133 26.9507V17.5604C396.103 17.1588 395.981 16.819 395.729 16.5616Z" fill="white"/>
<path d="M406.783 22.2967C406.106 21.7098 405.015 21.2671 403.449 20.9376C402.741 20.7831 402.196 20.639 401.832 20.4846C401.418 20.3095 401.256 20.1654 401.185 20.0624C401.084 19.9285 401.044 19.7638 401.044 19.5476C401.044 19.3828 401.094 19.1357 401.478 18.9195C401.832 18.7239 402.307 18.6312 402.893 18.6312C403.408 18.6312 403.843 18.693 404.197 18.8165C404.54 18.9298 404.863 19.146 405.177 19.4343C405.52 19.7535 405.924 19.9183 406.359 19.9183C406.662 19.9183 406.915 19.8359 407.137 19.6711C407.45 19.4137 407.602 19.1048 407.602 18.7651C407.602 18.4665 407.491 18.1679 407.258 17.8899C406.814 17.3339 406.207 16.8911 405.45 16.5719C404.702 16.263 403.853 16.1086 402.923 16.1086C402.155 16.1086 401.428 16.2321 400.751 16.4895C400.054 16.747 399.478 17.1382 399.043 17.653C398.599 18.1885 398.366 18.8474 398.366 19.6094C398.366 21.4833 399.791 22.7086 402.59 23.2543C403.56 23.4396 404.257 23.6661 404.641 23.9339C404.975 24.1604 405.136 24.4281 405.136 24.7473C405.136 25.0768 404.975 25.3342 404.641 25.5401C404.257 25.7769 403.701 25.8902 402.974 25.8902C402.428 25.8902 401.903 25.7872 401.418 25.5916C400.943 25.3959 400.589 25.1591 400.347 24.8914C399.791 24.3251 399.134 24.2427 398.417 24.7782C398.063 25.0459 397.871 25.4268 397.871 25.8593C397.871 26.1991 397.992 26.4977 398.235 26.7448C398.73 27.2493 399.427 27.6714 400.296 27.9803C401.155 28.2892 402.075 28.4437 403.045 28.4437C404.025 28.4437 404.874 28.2789 405.581 27.9597C406.298 27.6303 406.854 27.1772 407.238 26.6006C407.612 26.024 407.804 25.365 407.804 24.6649C407.834 23.697 407.481 22.9042 406.783 22.2967Z" fill="white"/>
<path d="M415.948 26.0034C415.716 25.7357 415.412 25.6019 415.079 25.6019H414.372C414.028 25.6019 413.745 25.4577 413.503 25.1488C413.25 24.8296 413.119 24.4281 413.119 23.9442V19.074H414.554C414.927 19.074 415.231 18.9607 415.473 18.7342C415.716 18.5077 415.847 18.2091 415.847 17.859C415.847 17.4883 415.726 17.1794 415.473 16.9426C415.231 16.7161 414.927 16.6028 414.554 16.6028H413.129V13.9052C413.129 13.5139 412.997 13.1741 412.745 12.9167C412.492 12.6593 412.169 12.5254 411.775 12.5254C411.381 12.5254 411.057 12.6593 410.805 12.9167C410.552 13.1741 410.421 13.5036 410.421 13.9052V16.6131H409.794C409.42 16.6131 409.117 16.7264 408.875 16.9529C408.632 17.1897 408.501 17.4883 408.501 17.8693C408.501 18.2091 408.632 18.5077 408.875 18.7445C409.117 18.971 409.42 19.0843 409.794 19.0843H410.421V23.9545C410.421 24.7782 410.593 25.5298 410.936 26.1888C411.28 26.858 411.755 27.3935 412.361 27.7744C412.967 28.1657 413.644 28.3613 414.382 28.3613H414.756C415.19 28.3613 415.554 28.2378 415.837 27.9907C416.13 27.7332 416.292 27.3832 416.292 26.9816C416.292 26.5903 416.17 26.2609 415.948 26.0034Z" fill="white"/>
<path d="M433.843 13.03C433.51 12.6902 433.116 12.5254 432.661 12.5254C432.206 12.5254 431.802 12.7005 431.479 13.03C431.145 13.3697 430.984 13.7713 430.984 14.2346C430.984 14.698 431.155 15.1098 431.479 15.4393C431.812 15.7791 432.206 15.9438 432.661 15.9438C433.116 15.9438 433.52 15.7688 433.843 15.4393C434.177 15.0995 434.338 14.698 434.338 14.2346C434.338 13.7816 434.177 13.3697 433.843 13.03Z" fill="white"/>
<path d="M432.661 17.1794C432.277 17.1794 431.944 17.3133 431.681 17.5707C431.418 17.8281 431.287 18.1679 431.287 18.5797V26.961C431.287 27.3626 431.418 27.692 431.681 27.9598C431.944 28.2275 432.267 28.3613 432.661 28.3613C433.065 28.3613 433.399 28.2275 433.651 27.9598C433.904 27.692 434.025 27.3626 434.025 26.961V18.5797C434.025 18.1679 433.894 17.8281 433.641 17.5707C433.399 17.3133 433.065 17.1794 432.661 17.1794Z" fill="white"/>
<path d="M447.333 18.7342C446.878 17.8693 446.241 17.2103 445.423 16.7573C444.625 16.3145 443.705 16.088 442.705 16.088C441.977 16.088 441.29 16.2219 440.644 16.4793C440.209 16.6543 439.815 16.8808 439.461 17.1588C439.401 16.9426 439.29 16.747 439.138 16.5822C438.885 16.3248 438.552 16.191 438.148 16.191C437.764 16.191 437.43 16.3248 437.168 16.5822C436.905 16.8396 436.774 17.1794 436.774 17.5913V26.9816C436.774 27.3832 436.905 27.7126 437.168 27.9804C437.43 28.2481 437.754 28.3819 438.148 28.3819C438.552 28.3819 438.885 28.2481 439.138 27.9804C439.391 27.7126 439.522 27.3832 439.522 26.9816V21.0406C439.522 20.5978 439.633 20.2066 439.866 19.8565C440.098 19.4961 440.431 19.2078 440.856 19.0019C441.28 18.7857 441.765 18.6724 442.291 18.6724C443.21 18.6724 443.917 18.9298 444.453 19.4549C444.989 19.9697 445.251 20.7626 445.251 21.8025V26.9816C445.251 27.3832 445.383 27.7126 445.645 27.9804C445.908 28.2481 446.231 28.3819 446.625 28.3819C447.02 28.3819 447.343 28.2481 447.606 27.9804C447.868 27.7126 448 27.3832 448 26.9816V21.8025C448.01 20.6184 447.777 19.5888 447.333 18.7342Z" fill="white"/>
<path d="M427.75 16.191C427.366 16.191 427.033 16.3248 426.77 16.5822C426.618 16.7264 426.507 16.9117 426.447 17.1073C426.356 17.0456 426.255 16.9838 426.164 16.922C425.254 16.3866 424.234 16.1086 423.122 16.1086C422.011 16.1086 420.98 16.3866 420.061 16.922C419.141 17.4574 418.403 18.209 417.888 19.146C417.363 20.083 417.1 21.1435 417.1 22.2864C417.1 23.4293 417.342 24.4796 417.828 25.4165C418.313 26.3535 418.99 27.1051 419.848 27.6406C420.697 28.176 421.667 28.4437 422.708 28.4437C423.547 28.4437 424.345 28.2583 425.083 27.9083C425.557 27.6714 425.992 27.3728 426.386 27.0228C426.396 27.4037 426.528 27.7229 426.78 27.9803C427.043 28.248 427.366 28.3819 427.76 28.3819C428.154 28.3819 428.478 28.248 428.74 27.9803C429.003 27.7126 429.134 27.3831 429.134 26.9816V23.347V22.2864V17.5913C429.134 17.1794 429.003 16.8396 428.75 16.5822C428.488 16.3248 428.154 16.191 427.75 16.191ZM426.022 24.1398C425.739 24.6855 425.335 25.1179 424.83 25.4268C424.325 25.7357 423.749 25.9005 423.122 25.9005C422.496 25.9005 421.92 25.746 421.415 25.4268C420.909 25.1179 420.505 24.6855 420.202 24.1398C419.909 23.5941 419.757 22.9763 419.757 22.2864C419.757 21.5966 419.909 20.9788 420.202 20.4228C420.495 19.8771 420.899 19.4343 421.405 19.1254C421.91 18.8165 422.486 18.6518 423.112 18.6518C423.739 18.6518 424.315 18.8062 424.82 19.1254C425.325 19.4343 425.729 19.8771 426.012 20.4228C426.305 20.9788 426.447 21.6069 426.447 22.2864C426.467 22.9763 426.315 23.5941 426.022 24.1398Z" fill="white"/>
</g>
<defs>
<clipPath id="clip0">
<rect width="77" height="27" fill="white" transform="translate(0 59)"/>
</clipPath>
<clipPath id="clip1">
<rect width="115" height="33" fill="white" transform="translate(333 4)"/>
</clipPath>
</defs>
</svg>
