<svg width="305" height="85" viewBox="0 0 305 85" fill="none" xmlns="http://www.w3.org/2000/svg">
<path fill-rule="evenodd" clip-rule="evenodd" d="M200.24 20.1035H206.415V20.5976C206.415 21.7204 206.283 22.7142 206.018 23.5784C205.76 24.3787 205.324 25.1276 204.712 25.8245C203.324 27.3861 201.559 28.166 199.417 28.166C197.326 28.166 195.536 27.4115 194.045 25.9013C192.554 24.3849 191.809 22.5654 191.809 20.442C191.809 18.2741 192.567 16.4347 194.084 14.9251C195.6 13.4087 197.446 12.6505 199.62 12.6505C200.788 12.6505 201.878 12.8885 202.891 13.3634C203.86 13.8389 204.811 14.6114 205.747 15.6802L204.141 17.2195C202.914 15.5866 201.42 14.7701 199.659 14.7701C198.078 14.7701 196.752 15.3157 195.681 16.4061C194.609 17.4774 194.074 18.8196 194.074 20.4327C194.074 22.0973 194.671 23.4686 195.865 24.5467C196.981 25.5467 198.191 26.0464 199.495 26.0464C200.604 26.0464 201.601 25.6732 202.485 24.9268C203.369 24.1735 203.863 23.2727 203.966 22.2232H200.24V20.1035Z" fill="white"/>
<mask id="mask0" mask-type="alpha" maskUnits="userSpaceOnUse" x="156" y="0" width="149" height="34">
<path d="M156.579 34H304.514V0H156.579V34Z" fill="white"/>
</mask>
<g mask="url(#mask0)">
<path fill-rule="evenodd" clip-rule="evenodd" d="M214.405 27.8854H216.66V12.9409H214.405V27.8854Z" fill="white"/>
<path fill-rule="evenodd" clip-rule="evenodd" d="M229.529 15.0607V27.8857H227.274V15.0607H223.838V12.9411H232.955V15.0607H229.529Z" fill="white"/>
<path fill-rule="evenodd" clip-rule="evenodd" d="M250.634 13.7394V16.4064C249.331 15.3153 247.982 14.7704 246.589 14.7704C245.052 14.7704 243.758 15.3221 242.707 16.4256C241.649 17.5223 241.119 18.8645 241.119 20.4522C241.119 22.0201 241.649 23.343 242.707 24.4205C243.765 25.4986 245.062 26.0373 246.598 26.0373C247.392 26.0373 248.066 25.9078 248.621 25.6499C248.931 25.5209 249.252 25.3467 249.584 25.1273C249.916 24.9078 250.267 24.6431 250.634 24.3331V27.0584C249.344 27.7906 247.988 28.157 246.569 28.157C244.433 28.157 242.61 27.4118 241.1 25.9208C239.597 24.4174 238.845 22.6041 238.845 20.4813C238.845 18.5775 239.474 16.8807 240.732 15.3897C242.281 13.5639 244.285 12.6501 246.744 12.6501C248.086 12.6501 249.383 13.0134 250.634 13.7394Z" fill="white"/>
<path fill-rule="evenodd" clip-rule="evenodd" d="M260.369 17.9885C260.369 19.6388 260.924 20.9959 262.033 22.0604C263.137 23.1236 264.412 23.6555 265.857 23.6555C267.425 23.6555 268.747 23.1137 269.826 22.0306C270.903 20.9352 271.442 19.6004 271.442 18.027C271.442 16.4349 270.909 15.1002 269.845 14.0233C268.787 12.9403 267.477 12.3984 265.915 12.3984C264.36 12.3984 263.046 12.9403 261.975 14.0233C260.904 15.094 260.369 16.4151 260.369 17.9885ZM258.094 17.9643C258.094 15.8609 258.865 14.0537 260.407 12.5435C261.943 11.0339 263.788 10.2788 265.944 10.2788C268.074 10.2788 269.899 11.0401 271.423 12.5633C272.952 14.0859 273.716 15.9154 273.716 18.0511C273.716 20.1999 272.948 22.0232 271.413 23.5204C269.871 25.0237 268.009 25.7757 265.828 25.7757C263.898 25.7757 262.166 25.1074 260.63 23.7714C258.939 22.2941 258.094 20.3586 258.094 17.9643Z" fill="#0FCE7C"/>
<path fill-rule="evenodd" clip-rule="evenodd" d="M280.359 27.8854H282.615V12.9409H280.359V27.8854Z" fill="white"/>
<path fill-rule="evenodd" clip-rule="evenodd" d="M291.359 27.8856V11.9244L302.258 23.3265V12.9411H304.513V28.7957L293.615 17.4221V27.8856H291.359Z" fill="white"/>
<path fill-rule="evenodd" clip-rule="evenodd" d="M170.969 7.30581V4.11864C170.969 3.61338 170.559 3.20297 170.053 3.20297C169.547 3.20297 169.137 3.61338 169.137 4.11864V7.37587C169.603 7.32441 170.076 7.29527 170.555 7.29527C170.694 7.29527 170.832 7.30147 170.969 7.30581Z" fill="white"/>
<path fill-rule="evenodd" clip-rule="evenodd" d="M175.401 14.7381L175.549 14.8813C176.951 16.2427 177.723 18.0691 177.723 20.0232C177.723 21.8948 177.005 23.666 175.703 25.0107L175.631 25.0839L176.223 25.6579L177.703 26.8284C179.458 24.9853 180.426 22.5718 180.426 20.0232C180.426 17.3518 179.377 14.8553 177.474 12.9849L176.545 13.8603L175.401 14.7381Z" fill="#0FCE7C"/>
<path fill-rule="evenodd" clip-rule="evenodd" d="M177.573 26.9651L177.645 26.8913C177.664 26.8708 177.683 26.8491 177.702 26.8287L176.224 25.6576L177.573 26.9651Z" fill="#0FCE7C"/>
<path fill-rule="evenodd" clip-rule="evenodd" d="M178.702 31.5016H170.555C164.226 31.5016 159.077 26.3523 159.077 20.0232C159.077 13.6935 164.226 8.54479 170.555 8.54479C173.183 8.54479 175.676 9.4214 177.699 11.037L172.107 16.2043C171.628 16.009 171.104 15.9005 170.555 15.9005C168.282 15.9005 166.432 17.7498 166.432 20.0232C166.432 22.2966 168.282 24.1459 170.555 24.1459C170.96 24.1459 171.351 24.0864 171.721 23.9772L178.702 29.232V31.5016ZM170.555 21.6475C169.66 21.6475 168.931 20.919 168.931 20.0232C168.931 19.1274 169.66 18.3983 170.555 18.3983C171.451 18.3983 172.18 19.1274 172.18 20.0232C172.18 20.919 171.451 21.6475 170.555 21.6475ZM174.678 20.0232C174.678 19.2135 174.443 18.4584 174.039 17.8211L177.374 14.7393L177.402 14.7691L181.348 11.0494L180.439 10.1399C177.799 7.50017 174.289 6.04639 170.555 6.04639C162.848 6.04639 156.579 12.316 156.579 20.0232C156.579 27.6536 162.726 33.8717 170.329 33.9938V34H181.2V27.9858L173.871 22.4689C174.378 21.7845 174.678 20.9382 174.678 20.0232Z" fill="white"/>
<path fill-rule="evenodd" clip-rule="evenodd" d="M184.089 4.80621L183.088 5.80744L182.086 4.80621L183.088 3.80499L184.089 4.80621Z" fill="#25E899"/>
<path fill-rule="evenodd" clip-rule="evenodd" d="M174.556 4.92483L174.077 5.40343L173.598 4.92483L174.077 4.44623L174.556 4.92483Z" fill="#25E899"/>
<path fill-rule="evenodd" clip-rule="evenodd" d="M179.528 0.72173C179.528 0.323101 179.205 0.000106812 178.806 0.000106812C178.408 0.000106812 178.085 0.323101 178.085 0.72173C178.085 1.12036 178.408 1.44335 178.806 1.44335C179.205 1.44335 179.528 1.12036 179.528 0.72173Z" fill="#25E899"/>
<path fill-rule="evenodd" clip-rule="evenodd" d="M165.717 14.7761C165.212 14.7761 164.801 14.3657 164.801 13.8598V4.11917C164.801 3.61267 165.212 3.20288 165.717 3.20288C166.223 3.20288 166.633 3.61267 166.633 4.11917V13.8598C166.633 14.3657 166.223 14.7761 165.717 14.7761Z" fill="white"/>
</g>
<g clip-path="url(#clip0)">
<path d="M24.4631 62.4406C24.1397 62.3994 23.8164 62.3788 23.4829 62.3788C23.1091 62.3788 22.7352 62.4097 22.3714 62.4612C19.714 62.8215 17.4606 64.4587 16.2178 66.7548C16.0056 67.146 15.8237 67.5682 15.6721 67.9903C14.3687 66.1679 12.368 64.8911 10.0641 64.5822C9.70037 64.5307 9.3265 64.4998 8.95263 64.4998C8.61918 64.4998 8.29584 64.5204 7.97249 64.5616C7.93207 64.8911 7.91187 65.2206 7.91187 65.5604C7.91187 65.9413 7.94218 66.3223 7.9927 66.693C8.48782 70.4615 11.4181 73.4371 15.1063 73.9417C15.1265 73.9417 15.1568 73.9519 15.177 73.9519V81.4271H17.2586V71.8412C17.2788 71.8412 17.3091 71.8309 17.3293 71.8309C21.0275 71.3264 23.9478 68.3404 24.4429 64.5822C24.4934 64.2115 24.5237 63.8306 24.5237 63.4496C24.5237 63.0995 24.5035 62.77 24.4631 62.4406V62.4406Z" fill="white"/>
<path d="M9.63973 57.7557C9.91256 58.0337 10.3369 58.0955 10.6906 57.9101C12.3275 57.0246 14.207 56.5201 16.1875 56.5201C17.8951 56.5201 19.522 56.9011 20.9972 57.5704C21.3307 57.7248 21.7248 57.6527 21.9875 57.385L23.9781 55.3566C24.4025 54.9242 24.2913 54.2034 23.7659 53.9151C21.5025 52.7002 18.9258 52 16.1875 52C13.146 52 10.2965 52.8649 7.86134 54.3579C7.36621 54.6668 7.28538 55.3566 7.68956 55.7788L9.63973 57.7557Z" fill="white"/>
<path d="M28.6767 59.8459L26.7265 61.8331C26.4537 62.1111 26.393 62.5435 26.5749 62.9039C27.4439 64.5719 27.939 66.487 27.939 68.5051C27.939 70.5232 27.4439 72.4384 26.5749 74.1064C26.393 74.4565 26.4537 74.8889 26.7265 75.1772L28.6767 77.1644C29.0808 77.5763 29.7679 77.4939 30.0711 76.9894C31.5362 74.508 32.385 71.6147 32.385 68.5154C32.385 65.4162 31.5362 62.5126 30.0711 60.0415C29.7679 59.5164 29.0808 59.4237 28.6767 59.8459V59.8459Z" fill="white"/>
<path d="M21.9875 79.6047C21.7248 79.337 21.3307 79.2649 20.9972 79.4194C19.5321 80.0886 17.9052 80.4696 16.1875 80.4696C14.207 80.4696 12.3275 79.9651 10.6906 79.0796C10.3471 78.8942 9.92266 78.956 9.63973 79.234L7.68956 81.2212C7.28538 81.6331 7.36621 82.3332 7.86134 82.6421C10.2965 84.1351 13.1359 85 16.1875 85C18.9258 85 21.5025 84.2999 23.7659 83.0746C24.2913 82.7863 24.4025 82.0655 23.9781 81.6331L21.9875 79.6047Z" fill="white"/>
<path d="M5.28467 74.405C5.54739 74.1373 5.61812 73.7357 5.46655 73.396C4.80976 71.903 4.43589 70.2453 4.43589 68.4949C4.43589 66.7445 4.80976 65.0971 5.46655 63.5938C5.61812 63.254 5.54739 62.8524 5.28467 62.5847L3.30418 60.5666C2.87979 60.1342 2.17247 60.2474 1.88955 60.7829C0.687108 63.079 0 65.7045 0 68.4949C0 71.2852 0.687108 73.9108 1.88955 76.2172C2.17247 76.7526 2.87979 76.8658 3.30418 76.4334L5.28467 74.405Z" fill="white"/>
<path d="M48.8756 68.5669C47.9965 67.7432 46.7435 67.2387 45.1571 67.0843C43.8739 66.9504 42.9847 66.6827 42.5199 66.2811C42.0753 65.9002 41.853 65.4471 41.853 64.8808C41.853 64.2939 42.0854 63.8512 42.5704 63.5423C43.1059 63.2025 43.8233 63.0275 44.7024 63.0275C45.4199 63.0275 46.0059 63.1613 46.4606 63.429C46.9153 63.6967 47.2993 64.0983 47.6024 64.6028C47.7237 64.8293 47.8955 65.0044 48.1178 65.1382C48.33 65.2618 48.5725 65.3339 48.8251 65.3339C49.0777 65.3339 49.3101 65.2721 49.5223 65.1382C49.8659 64.8911 50.0477 64.5513 50.0477 64.1498C50.0477 63.8615 49.9568 63.5629 49.7648 63.2643C49.2192 62.3891 48.5422 61.6992 47.7641 61.2256C46.9659 60.7417 45.9857 60.5049 44.8439 60.5049C43.8132 60.5049 42.8634 60.6696 42.0247 60.9991C41.1658 61.3389 40.4787 61.8331 39.9836 62.4818C39.4784 63.1407 39.2157 63.9336 39.2157 64.8293C39.2157 66.0958 39.7108 67.1769 40.6808 68.0212C41.6307 68.8449 42.9341 69.3392 44.5509 69.5039C45.6017 69.6069 46.3798 69.8952 46.8749 70.3585C47.3599 70.8116 47.5923 71.3367 47.5923 71.9751C47.5923 72.6237 47.3195 73.118 46.7638 73.4989C46.1676 73.9005 45.43 74.1064 44.561 74.1064C43.8132 74.1064 43.1261 73.9417 42.5098 73.6225C41.9136 73.3136 41.5195 72.9429 41.3275 72.5311C41.2164 72.2634 41.0345 72.0471 40.792 71.8824C40.5495 71.7176 40.2969 71.6456 40.024 71.6456C39.9129 71.6456 39.8219 71.6559 39.7512 71.6765C39.4481 71.7485 39.2056 71.8824 39.0136 72.078C38.8115 72.2942 38.7104 72.5517 38.7104 72.84C38.7104 72.9944 38.7509 73.1591 38.8317 73.3651C39.2359 74.3432 39.9836 75.1464 41.0547 75.7538C42.1056 76.3407 43.2777 76.6496 44.561 76.6496C45.531 76.6496 46.4606 76.4746 47.3094 76.1348C48.1784 75.7847 48.8857 75.2493 49.4111 74.5389C49.9467 73.8181 50.2195 72.9429 50.2195 71.9442C50.2397 70.5336 49.785 69.4112 48.8756 68.5669V68.5669Z" fill="white"/>
<path d="M62.7289 64.5616C62.4763 64.3042 62.1429 64.1704 61.7387 64.1704C61.3547 64.1704 61.0213 64.3042 60.7585 64.5616C60.4958 64.819 60.3645 65.1588 60.3645 65.5707V71.5117C60.3645 71.9544 60.2533 72.3457 60.0209 72.6958C59.7885 73.0562 59.4551 73.3445 59.0307 73.5504C58.6063 73.7666 58.1213 73.8696 57.5958 73.8696C56.6763 73.8696 55.969 73.6122 55.4335 73.0871C54.8979 72.5722 54.6352 71.7794 54.6352 70.7395V65.5604C54.6352 65.1588 54.5038 64.8293 54.2411 64.5616C53.9784 64.2939 53.6551 64.1601 53.261 64.1601C52.8669 64.1601 52.5436 64.2939 52.2809 64.5616C52.0181 64.8293 51.8868 65.1588 51.8868 65.5604V70.7395C51.8868 71.9236 52.1192 72.9635 52.5638 73.8078C53.0185 74.6624 53.6551 75.3317 54.4735 75.7847C55.2718 76.2275 56.1913 76.454 57.1917 76.454C57.9192 76.454 58.6063 76.3201 59.253 76.0627C59.6875 75.8877 60.0815 75.6612 60.4453 75.3832C60.5059 75.5994 60.6171 75.7847 60.7788 75.9495C61.0415 76.2172 61.3648 76.351 61.7589 76.351C62.1631 76.351 62.4965 76.2172 62.7491 75.9495C63.0018 75.6817 63.1331 75.3523 63.1331 74.9507V65.5604C63.1028 65.1588 62.9815 64.819 62.7289 64.5616V64.5616Z" fill="white"/>
<path d="M73.7833 70.2967C73.1063 69.7098 72.015 69.2671 70.4488 68.9376C69.7415 68.7831 69.1958 68.639 68.8321 68.4846C68.4178 68.3095 68.2561 68.1654 68.1854 68.0624C68.0843 67.9285 68.0439 67.7638 68.0439 67.5476C68.0439 67.3828 68.0944 67.1357 68.4784 66.9195C68.8321 66.7239 69.307 66.6312 69.8931 66.6312C70.4084 66.6312 70.8429 66.693 71.1965 66.8165C71.5401 66.9298 71.8634 67.146 72.1767 67.4343C72.5202 67.7535 72.9244 67.9183 73.3589 67.9183C73.6621 67.9183 73.9147 67.8359 74.137 67.6711C74.4502 67.4137 74.6018 67.1048 74.6018 66.7651C74.6018 66.4665 74.4906 66.1679 74.2582 65.8899C73.8136 65.3339 73.2073 64.8911 72.4495 64.5719C71.7018 64.263 70.853 64.1086 69.9234 64.1086C69.1554 64.1086 68.4279 64.2321 67.7509 64.4895C67.0537 64.747 66.4777 65.1382 66.0432 65.653C65.5986 66.1885 65.3662 66.8474 65.3662 67.6094C65.3662 69.4833 66.791 70.7086 69.5899 71.2543C70.56 71.4396 71.2572 71.6661 71.6411 71.9339C71.9746 72.1604 72.1363 72.4281 72.1363 72.7473C72.1363 73.0768 71.9746 73.3342 71.6411 73.5401C71.2572 73.7769 70.7014 73.8902 69.9739 73.8902C69.4282 73.8902 68.9028 73.7872 68.4178 73.5916C67.9429 73.3959 67.5892 73.1591 67.3467 72.8914C66.791 72.3251 66.1342 72.2427 65.4167 72.7782C65.0631 73.0459 64.8711 73.4268 64.8711 73.8593C64.8711 74.1991 64.9923 74.4977 65.2349 74.7448C65.73 75.2493 66.4272 75.6714 67.2962 75.9803C68.1551 76.2892 69.0746 76.4437 70.0446 76.4437C71.0248 76.4437 71.8735 76.2789 72.5809 75.9597C73.2983 75.6303 73.854 75.1772 74.238 74.6006C74.6119 74.024 74.8039 73.365 74.8039 72.6649C74.8342 71.697 74.4805 70.9042 73.7833 70.2967V70.2967Z" fill="white"/>
<path d="M82.9481 74.0035C82.7157 73.7358 82.4125 73.6019 82.0791 73.6019H81.3718C81.0282 73.6019 80.7453 73.4577 80.5028 73.1489C80.2502 72.8297 80.1188 72.4281 80.1188 71.9442V67.074H81.5537C81.9275 67.074 82.2307 66.9607 82.4732 66.7342C82.7157 66.5077 82.847 66.2091 82.847 65.859C82.847 65.4883 82.7258 65.1794 82.4732 64.9426C82.2307 64.7161 81.9275 64.6028 81.5537 64.6028H80.1289V61.9052C80.1289 61.5139 79.9976 61.1741 79.7449 60.9167C79.4923 60.6593 79.169 60.5255 78.7749 60.5255C78.3808 60.5255 78.0575 60.6593 77.8049 60.9167C77.5523 61.1741 77.4209 61.5036 77.4209 61.9052V64.6131H76.7944C76.4206 64.6131 76.1174 64.7264 75.8749 64.9529C75.6324 65.1897 75.501 65.4883 75.501 65.8693C75.501 66.2091 75.6324 66.5077 75.8749 66.7445C76.1174 66.971 76.4206 67.0843 76.7944 67.0843H77.4209V71.9545C77.4209 72.7782 77.5927 73.5298 77.9362 74.1888C78.2798 74.8581 78.7547 75.3935 79.361 75.7744C79.9672 76.1657 80.6443 76.3613 81.3819 76.3613H81.7557C82.1902 76.3613 82.554 76.2378 82.8369 75.9907C83.13 75.7333 83.2916 75.3832 83.2916 74.9816C83.2916 74.5904 83.1704 74.2609 82.9481 74.0035V74.0035Z" fill="white"/>
<path d="M100.843 61.03C100.51 60.6902 100.116 60.5255 99.661 60.5255C99.2063 60.5255 98.8021 60.7005 98.4788 61.03C98.1453 61.3698 97.9836 61.7713 97.9836 62.2347C97.9836 62.698 98.1554 63.1099 98.4788 63.4393C98.8122 63.7791 99.2063 63.9439 99.661 63.9439C100.116 63.9439 100.52 63.7688 100.843 63.4393C101.177 63.0996 101.338 62.698 101.338 62.2347C101.338 61.7816 101.177 61.3698 100.843 61.03Z" fill="white"/>
<path d="M99.6609 65.1794C99.277 65.1794 98.9435 65.3133 98.6808 65.5707C98.4181 65.8281 98.2867 66.1679 98.2867 66.5798V74.961C98.2867 75.3626 98.4181 75.6921 98.6808 75.9598C98.9435 76.2275 99.2669 76.3613 99.6609 76.3613C100.065 76.3613 100.399 76.2275 100.651 75.9598C100.904 75.6921 101.025 75.3626 101.025 74.961V66.5798C101.025 66.1679 100.894 65.8281 100.641 65.5707C100.399 65.3133 100.065 65.1794 99.6609 65.1794V65.1794Z" fill="white"/>
<path d="M114.333 66.7342C113.878 65.8693 113.241 65.2103 112.423 64.7573C111.625 64.3145 110.705 64.088 109.705 64.088C108.977 64.088 108.29 64.2219 107.644 64.4793C107.209 64.6543 106.815 64.8808 106.461 65.1588C106.401 64.9426 106.29 64.747 106.138 64.5822C105.885 64.3248 105.552 64.191 105.148 64.191C104.764 64.191 104.43 64.3248 104.168 64.5822C103.905 64.8397 103.774 65.1794 103.774 65.5913V74.9816C103.774 75.3832 103.905 75.7127 104.168 75.9804C104.43 76.2481 104.754 76.3819 105.148 76.3819C105.552 76.3819 105.885 76.2481 106.138 75.9804C106.391 75.7127 106.522 75.3832 106.522 74.9816V69.0406C106.522 68.5978 106.633 68.2066 106.866 67.8565C107.098 67.4961 107.431 67.2078 107.856 67.0019C108.28 66.7857 108.765 66.6724 109.291 66.6724C110.21 66.6724 110.917 66.9298 111.453 67.4549C111.989 67.9698 112.251 68.7626 112.251 69.8025V74.9816C112.251 75.3832 112.383 75.7127 112.645 75.9804C112.908 76.2481 113.231 76.3819 113.625 76.3819C114.02 76.3819 114.343 76.2481 114.606 75.9804C114.868 75.7127 115 75.3832 115 74.9816V69.8025C115.01 68.6184 114.777 67.5888 114.333 66.7342V66.7342Z" fill="white"/>
<path d="M94.7502 64.191C94.3662 64.191 94.0327 64.3248 93.77 64.5822C93.6184 64.7264 93.5073 64.9117 93.4467 65.1073C93.3557 65.0456 93.2547 64.9838 93.1637 64.922C92.2543 64.3866 91.2338 64.1086 90.1223 64.1086C89.0108 64.1086 87.9801 64.3866 87.0606 64.922C86.1411 65.4574 85.4035 66.209 84.8881 67.146C84.3627 68.083 84.1 69.1435 84.1 70.2864C84.1 71.4293 84.3425 72.4796 84.8275 73.4165C85.3125 74.3535 85.9895 75.1051 86.8484 75.6406C87.6972 76.176 88.6672 76.4437 89.708 76.4437C90.5467 76.4437 91.3449 76.2583 92.0826 75.9083C92.5575 75.6714 92.992 75.3728 93.386 75.0228C93.3961 75.4037 93.5275 75.7229 93.7801 75.9803C94.0428 76.248 94.3662 76.3819 94.7603 76.3819C95.1543 76.3819 95.4777 76.248 95.7404 75.9803C96.0031 75.7126 96.1345 75.3831 96.1345 74.9816V71.347V70.2864V65.5913C96.1345 65.1794 96.0031 64.8396 95.7505 64.5822C95.4878 64.3248 95.1543 64.191 94.7502 64.191V64.191ZM93.0223 72.1398C92.7393 72.6855 92.3352 73.1179 91.8299 73.4268C91.3247 73.7357 90.7488 73.9005 90.1223 73.9005C89.4958 73.9005 88.9198 73.746 88.4146 73.4268C87.9094 73.1179 87.5052 72.6855 87.2021 72.1398C86.909 71.5941 86.7575 70.9763 86.7575 70.2864C86.7575 69.5966 86.909 68.9788 87.2021 68.4228C87.4951 67.8771 87.8993 67.4343 88.4045 67.1254C88.9097 66.8165 89.4857 66.6518 90.1122 66.6518C90.7387 66.6518 91.3146 66.8062 91.8198 67.1254C92.3251 67.4343 92.7292 67.8771 93.0122 68.4228C93.3052 68.9788 93.4467 69.6069 93.4467 70.2864C93.4669 70.9763 93.3153 71.5941 93.0223 72.1398V72.1398Z" fill="white"/>
</g>
<path d="M153.012 69.4313C152.348 68.7736 151.551 68.4449 150.62 68.4449H141.387C141.215 68.4449 141.068 68.3845 140.945 68.2634C140.822 68.1425 140.761 67.9951 140.761 67.8212V67.0616C140.761 66.8955 140.822 66.7518 140.945 66.6307C141.068 66.5098 141.215 66.4491 141.387 66.4491H153.291C153.321 66.4491 153.345 66.4396 153.364 66.4207C153.382 66.4021 153.392 66.381 153.392 66.3584V64.0906C153.392 64.0604 153.382 64.0378 153.364 64.0226C153.345 64.0076 153.321 64 153.291 64H141.387C140.448 64 139.649 64.329 138.989 64.9866C138.33 65.6443 138 66.4378 138 67.3677V67.5151C138 68.4526 138.33 69.25 138.989 69.9077C139.649 70.5653 140.448 70.894 141.387 70.894H150.62C150.784 70.894 150.927 70.9526 151.05 71.0698C151.173 71.187 151.234 71.3326 151.234 71.5065V72.2661C151.234 72.44 151.173 72.5856 151.05 72.7028C150.927 72.82 150.783 72.8786 150.62 72.8786H138.704C138.682 72.8786 138.661 72.8881 138.643 72.907C138.624 72.9259 138.615 72.9506 138.615 72.9809V75.2487C138.615 75.2712 138.624 75.2923 138.643 75.3109C138.662 75.3298 138.682 75.3393 138.704 75.3393H150.62C151.551 75.3393 152.348 75.0088 153.012 74.3471C153.675 73.6858 154.007 72.8902 154.007 71.9604V71.8126C154.006 70.8827 153.675 70.089 153.012 69.4313Z" fill="white"/>
<path d="M173.056 64H170.474C170.452 64 170.431 64.0076 170.413 64.0226C170.394 64.0378 170.385 64.0604 170.385 64.0906V66.9706C170.385 67.22 170.258 67.4092 170.005 67.5377L164.852 69.7032L159.699 67.5377C159.446 67.4092 159.319 67.2203 159.319 66.9706V64.0906C159.319 64.0604 159.312 64.0378 159.297 64.0226C159.281 64.0076 159.259 64 159.229 64H156.647C156.625 64 156.604 64.0076 156.586 64.0226C156.567 64.0378 156.558 64.0604 156.558 64.0906V67.3902C156.558 67.8819 156.692 68.3314 156.96 68.7394C157.229 69.1478 157.594 69.4499 158.056 69.6464L163.466 71.9481V75.2367C163.466 75.267 163.475 75.2917 163.494 75.3106C163.512 75.3295 163.537 75.339 163.566 75.339H166.148C166.171 75.339 166.191 75.3295 166.21 75.3106C166.229 75.2917 166.238 75.2673 166.238 75.2367V71.9484L171.648 69.658C172.11 69.4539 172.475 69.1496 172.743 68.7453C173.012 68.3409 173.145 67.8932 173.145 67.4015V64.0906C173.145 64.0604 173.136 64.0378 173.117 64.0226C173.099 64.0076 173.078 64 173.056 64Z" fill="white"/>
<path d="M192.235 64H189.653C189.623 64 189.601 64.0095 189.586 64.0284C189.571 64.0473 189.564 64.0681 189.564 64.0906V72.8896H188.48C188.278 72.8896 188.107 72.7989 187.965 72.6173L182.958 65.1905C182.421 64.4273 181.68 64.0302 180.734 64H176.419C176.389 64 176.365 64.0095 176.346 64.0284C176.328 64.0473 176.318 64.0681 176.318 64.0906V75.248C176.318 75.2706 176.328 75.2917 176.346 75.3103C176.365 75.3292 176.389 75.3386 176.419 75.3386H179.001C179.024 75.3386 179.044 75.3292 179.063 75.3103C179.081 75.2917 179.091 75.2706 179.091 75.248V66.4491H180.175C180.376 66.4491 180.547 66.5437 180.689 66.7326L185.697 74.1594C186.233 74.923 186.975 75.3161 187.921 75.3386H192.236C192.265 75.3386 192.288 75.3292 192.303 75.3103C192.317 75.2917 192.325 75.2706 192.325 75.248V64.0906C192.325 64.0681 192.317 64.0473 192.303 64.0284C192.287 64.0095 192.265 64 192.235 64Z" fill="white"/>
<path d="M210.898 64H195.082C195.052 64 195.029 64.0095 195.015 64.0284C195 64.0473 194.992 64.0681 194.992 64.0906V66.3584C194.992 66.381 195 66.4021 195.015 66.4207C195.029 66.4396 195.052 66.4491 195.082 66.4491H201.609V75.248C201.609 75.2706 201.617 75.2917 201.632 75.3103C201.646 75.3292 201.669 75.3386 201.699 75.3386H204.281C204.311 75.3386 204.333 75.3292 204.348 75.3103C204.363 75.2917 204.37 75.2706 204.37 75.248V66.4491H210.898C210.928 66.4491 210.952 66.4396 210.97 66.4207C210.989 66.4018 210.998 66.381 210.998 66.3584V64.0906C210.998 64.0681 210.989 64.0473 210.97 64.0284C210.952 64.0095 210.928 64 210.898 64Z" fill="white"/>
<path d="M230.077 64H227.494C227.472 64 227.452 64.0095 227.433 64.0284C227.415 64.0473 227.406 64.0681 227.406 64.0906V68.4446H216.943V64.0906C216.943 64.0681 216.934 64.0473 216.915 64.0284C216.897 64.0098 216.872 64 216.843 64H214.26C214.238 64 214.217 64.0095 214.199 64.0284C214.181 64.0473 214.171 64.0681 214.171 64.0906V75.248C214.171 75.2706 214.181 75.2917 214.199 75.3103C214.217 75.3292 214.238 75.3386 214.26 75.3386H216.843C216.872 75.3386 216.897 75.3292 216.915 75.3103C216.934 75.2914 216.943 75.2706 216.943 75.248V70.894H227.406V75.248C227.406 75.2706 227.415 75.2917 227.433 75.3103C227.452 75.3292 227.472 75.3386 227.494 75.3386H230.077C230.107 75.3386 230.131 75.3292 230.149 75.3103C230.168 75.2914 230.178 75.2706 230.178 75.248V64.0906C230.178 64.0681 230.168 64.0473 230.149 64.0284C230.131 64.0095 230.107 64 230.077 64Z" fill="white"/>
<path d="M249.188 64H236.658C235.726 64 234.928 64.3287 234.265 64.9863C233.602 65.644 233.271 66.4378 233.271 67.3677V71.9597C233.271 72.8973 233.602 73.6947 234.265 74.3523C234.928 75.01 235.726 75.339 236.658 75.339H249.188C249.21 75.339 249.23 75.3295 249.249 75.3106C249.267 75.2917 249.277 75.2709 249.277 75.2484V72.9806C249.277 72.9504 249.268 72.9278 249.249 72.9125C249.23 72.8976 249.21 72.8899 249.188 72.8899H236.658C236.486 72.8899 236.341 72.8295 236.222 72.7086C236.103 72.5878 236.043 72.444 236.043 72.2777V70.894H249.18C249.21 70.894 249.232 70.8846 249.246 70.8656C249.261 70.8467 249.269 70.826 249.269 70.8034V68.5356C249.269 68.5054 249.261 68.4828 249.246 68.4675C249.232 68.4526 249.21 68.445 249.18 68.445H236.043V67.0616C236.043 66.8952 236.103 66.7518 236.222 66.6307C236.341 66.5098 236.486 66.4491 236.658 66.4491H249.188C249.21 66.4491 249.23 66.4396 249.249 66.4207C249.267 66.4021 249.277 66.381 249.277 66.3584V64.0906C249.277 64.0681 249.268 64.0473 249.249 64.0284C249.23 64.0098 249.21 64 249.188 64Z" fill="white"/>
<path d="M268.276 64H252.46C252.43 64 252.407 64.0095 252.392 64.0284C252.378 64.0473 252.37 64.0681 252.37 64.0906V66.3584C252.37 66.381 252.378 66.4021 252.392 66.4207C252.407 66.4396 252.43 66.4491 252.46 66.4491H258.987V75.248C258.987 75.2706 258.995 75.2917 259.009 75.3103C259.025 75.3292 259.047 75.3386 259.077 75.3386H261.658C261.689 75.3386 261.711 75.3292 261.726 75.3103C261.74 75.2917 261.748 75.2706 261.748 75.248V66.4491H268.275C268.306 66.4491 268.329 66.4396 268.348 66.4207C268.367 66.4018 268.376 66.381 268.376 66.3584V64.0906C268.376 64.0681 268.367 64.0473 268.348 64.0284C268.33 64.0095 268.306 64 268.276 64Z" fill="white"/>
<path d="M274.288 64.0226C274.272 64.0076 274.25 64 274.221 64H271.639C271.608 64 271.586 64.0076 271.571 64.0226C271.557 64.0378 271.549 64.0604 271.549 64.0906V75.248C271.549 75.2706 271.557 75.2917 271.571 75.3103C271.586 75.3292 271.608 75.3386 271.639 75.3386H274.221C274.25 75.3386 274.272 75.3292 274.288 75.3103C274.303 75.2914 274.31 75.2706 274.31 75.248V64.0906C274.31 64.0607 274.303 64.0378 274.288 64.0226Z" fill="white"/>
<path d="M281.417 66.7557C281.305 66.6272 281.167 66.5628 281.003 66.5628H277.65C277.62 66.5628 277.596 66.5533 277.577 66.5344C277.559 66.5158 277.549 66.4947 277.549 66.4721V64.2043C277.549 64.1818 277.559 64.161 277.577 64.1421C277.596 64.1235 277.62 64.1137 277.65 64.1137H281.193C282.087 64.1137 282.858 64.4805 283.507 65.2136L284.367 66.268L282.691 68.3203L281.417 66.7557ZM287.608 65.2023C288.257 64.4766 289.032 64.1137 289.934 64.1137H293.466C293.496 64.1137 293.518 64.1213 293.533 64.1363C293.548 64.1516 293.555 64.1741 293.555 64.2043V66.4721C293.555 66.4947 293.548 66.5158 293.533 66.5344C293.518 66.5533 293.496 66.5628 293.466 66.5628H290.113C289.948 66.5628 289.811 66.6272 289.699 66.7557L287.228 69.7718L289.71 72.8104C289.822 72.9316 289.956 72.9921 290.113 72.9921H293.466C293.496 72.9921 293.518 73.0015 293.533 73.0204C293.548 73.0393 293.555 73.0641 293.555 73.094V75.3618C293.555 75.3843 293.548 75.4054 293.533 75.424C293.518 75.4429 293.496 75.4524 293.466 75.4524H289.934C289.032 75.4524 288.261 75.0858 287.62 74.3525L285.563 71.8354L283.507 74.3525C282.858 75.0858 282.083 75.4524 281.182 75.4524H277.65C277.62 75.4524 277.597 75.4429 277.582 75.424C277.568 75.4051 277.56 75.3807 277.56 75.3501V73.0824C277.56 73.0598 277.568 73.039 277.582 73.0201C277.597 73.0012 277.62 72.9917 277.65 72.9917H281.003C281.159 72.9917 281.298 72.9276 281.417 72.7989L283.842 69.8282L287.608 65.2023Z" fill="white"/>
<path d="M80.3956 13.4517V13.4329C80.3956 12.48 79.7071 11.6503 78.6982 11.6503C77.6981 11.6503 77.0287 12.4616 77.0287 13.4137V13.4329C77.0287 14.3854 77.7173 15.2155 78.7166 15.2155C79.7263 15.2155 80.3956 14.4041 80.3956 13.4517ZM75.1522 13.4517V13.4329C75.1522 11.5371 76.6797 10 78.7166 10C80.7539 10 82.263 11.5179 82.263 13.4137V13.4329C82.263 15.3282 80.7351 16.8657 78.6982 16.8657C76.6609 16.8657 75.1522 15.3474 75.1522 13.4517Z" fill="white"/>
<path d="M85.8827 13.723C86.9768 13.723 87.6933 13.1384 87.6933 12.2707V12.2519C87.6933 11.3086 86.986 10.8184 85.9203 10.8184H84.2513V13.723H85.8827ZM83.5059 10.1298H85.9771C87.467 10.1298 88.4479 10.9215 88.4479 12.2231V12.2423C88.4479 13.6666 87.2599 14.402 85.8543 14.402H84.2513V16.7316H83.5059V10.1298Z" fill="white"/>
<path d="M89.7457 10.1298H94.5181V10.8088H90.4911V13.0628H94.0939V13.7418H90.4911V16.0526H94.5649V16.7316H89.7457V10.1298Z" fill="white"/>
<path d="M96.0041 10.1298H96.7019L100.861 15.4205V10.1298H101.587V16.7316H100.993L96.7306 11.3182V16.7316H96.0041V10.1298Z" fill="white"/>
<path d="M75.6342 24.3846L76.6527 23.1678C77.3037 23.6868 78.0298 23.9603 78.7936 23.9603C79.2842 23.9603 79.5485 23.7904 79.5485 23.508V23.4888C79.5485 23.2153 79.3314 23.0646 78.4357 22.8567C77.0302 22.5364 75.9453 22.1397 75.9453 20.7818V20.763C75.9453 19.5373 76.917 18.6505 78.5013 18.6505C79.6237 18.6505 80.501 18.9523 81.2176 19.5278L80.3027 20.8197C79.6993 20.3955 79.0391 20.1688 78.4541 20.1688C78.0106 20.1688 77.7939 20.3575 77.7939 20.5934V20.6122C77.7939 20.9141 78.0202 21.0461 78.9351 21.2536C80.4534 21.5839 81.3967 22.0741 81.3967 23.3097V23.3285C81.3967 24.6772 80.3311 25.479 78.7276 25.479C77.5584 25.479 76.4455 25.1111 75.6342 24.3846Z" fill="white"/>
<path d="M88.2421 22.0833V22.0645C88.2421 20.565 87.148 19.339 85.6393 19.339C84.1302 19.339 83.0554 20.5462 83.0554 22.0457V22.0645C83.0554 23.564 84.149 24.7904 85.6577 24.7904C87.1672 24.7904 88.2421 23.5832 88.2421 22.0833ZM82.282 22.0833V22.0645C82.282 20.2439 83.6496 18.6505 85.6577 18.6505C87.6671 18.6505 89.0154 20.2255 89.0154 22.0457V22.0645C89.0154 23.8847 87.6479 25.4786 85.6393 25.4786C83.6304 25.4786 82.282 23.9035 82.282 22.0833Z" fill="white"/>
<path d="M90.4225 22.6094V18.771H91.1678V22.5626C91.1678 23.9865 91.9224 24.7882 93.186 24.7882C94.4024 24.7882 95.1757 24.0521 95.1757 22.6094V18.771H95.9214V22.553C95.9214 24.4767 94.8174 25.4764 93.1675 25.4764C91.5353 25.4764 90.4225 24.4767 90.4225 22.6094Z" fill="white"/>
<path d="M100.399 22.1379C101.39 22.1379 102.097 21.6281 102.097 20.7796V20.7604C102.097 19.9498 101.475 19.4596 100.409 19.4596H98.372V22.1379H100.399ZM97.6266 18.771H100.465C101.277 18.771 101.927 19.0161 102.342 19.4308C102.663 19.7515 102.852 20.2138 102.852 20.7324V20.7516C102.852 21.8452 102.097 22.4862 101.06 22.675L103.087 25.3725H102.172L100.258 22.8073H98.372V25.3725H97.6266V18.771Z" fill="white"/>
<path d="M104.098 22.0833V22.0645C104.098 20.1971 105.494 18.6505 107.437 18.6505C108.634 18.6505 109.351 19.0747 110.012 19.6973L109.502 20.2439C108.945 19.7165 108.323 19.339 107.427 19.339C105.966 19.339 104.872 20.527 104.872 22.0457V22.0645C104.872 23.5924 105.975 24.7904 107.427 24.7904C108.332 24.7904 108.927 24.4413 109.558 23.8375L110.049 24.3186C109.361 25.0163 108.606 25.4786 107.408 25.4786C105.503 25.4786 104.098 23.9791 104.098 22.0833Z" fill="white"/>
<path d="M111.293 18.771H116.065V19.45H112.038V21.7041H115.641V22.383H112.038V24.6939H116.112V25.3728H111.293V18.771Z" fill="white"/>
<path d="M75.3376 30.7248V30.706C75.3376 28.7822 76.8183 27.2731 78.8173 27.2731C80.1664 27.2731 81.0341 27.8389 81.6187 28.6499L80.242 29.7159C79.8645 29.2441 79.4306 28.9425 78.7988 28.9425C77.8744 28.9425 77.2238 29.7251 77.2238 30.6872V30.706C77.2238 31.6964 77.8744 32.4698 78.7988 32.4698C79.4874 32.4698 79.8929 32.1491 80.2888 31.6677L81.6655 32.6489C81.0437 33.507 80.204 34.1388 78.7421 34.1388C76.8559 34.1388 75.3376 32.6957 75.3376 30.7248Z" fill="white"/>
<path d="M88.4089 30.7245V30.7057C88.4089 29.2062 87.3149 27.9802 85.8061 27.9802C84.2971 27.9802 83.2222 29.1874 83.2222 30.6869V30.7057C83.2222 32.2052 84.3158 33.4316 85.8246 33.4316C87.334 33.4316 88.4089 32.2244 88.4089 30.7245ZM82.4489 30.7245V30.7057C82.4489 28.8851 83.8164 27.2917 85.8246 27.2917C87.8339 27.2917 89.1822 28.8667 89.1822 30.6869V30.7057C89.1822 32.5259 87.8147 34.1198 85.8061 34.1198C83.7972 34.1198 82.4489 32.5447 82.4489 30.7245Z" fill="white"/>
<path d="M90.7007 27.4029H91.446V33.3162H95.1616V34.0047H90.7007V27.4029Z" fill="white"/>
<path d="M96.4769 27.4029H97.2223V33.3162H100.938V34.0047H96.4769V27.4029Z" fill="white"/>
<path d="M102.262 27.4029H107.035V28.0819H103.008V30.336H106.611V31.0149H103.008V33.3258H107.082V34.0047H102.262V27.4029Z" fill="white"/>
<path d="M108.224 30.7245V30.7057C108.224 28.8383 109.62 27.2917 111.563 27.2917C112.76 27.2917 113.477 27.7159 114.137 28.3385L113.628 28.8851C113.071 28.3577 112.449 27.9802 111.553 27.9802C110.092 27.9802 108.997 29.1682 108.997 30.6869V30.7057C108.997 32.2336 110.101 33.4316 111.553 33.4316C112.458 33.4316 113.053 33.0825 113.684 32.4787L114.175 32.9598C113.487 33.6576 112.732 34.1198 111.534 34.1198C109.629 34.1198 108.224 32.6203 108.224 30.7245Z" fill="white"/>
<path d="M117.171 28.0915H114.955V27.4029H120.142V28.0915H117.926V34.0047H117.171V28.0915Z" fill="white"/>
<path d="M122.284 27.4029H121.538V34.0047H122.284V27.4029Z" fill="white"/>
<path d="M123.597 27.4029H124.426L126.775 33.0898L129.133 27.4029H129.934L127.095 34.0515H126.435L123.597 27.4029Z" fill="white"/>
<path d="M131.181 27.4029H135.953V28.0819H131.926V30.336H135.529V31.0149H131.926V33.3258H136V34.0047H131.181V27.4029Z" fill="white"/>
<path d="M14.9964 15.9705C11.5724 15.9705 8.78704 18.7559 8.78704 22.1799C8.78704 25.6036 11.5724 28.3893 14.9964 28.3893C18.4205 28.3893 21.2058 25.6036 21.2058 22.1799C21.2058 18.7559 18.4205 15.9705 14.9964 15.9705ZM14.9964 34.1764C8.38157 34.1764 3 28.7948 3 22.1799C3 15.5647 8.38157 10.1831 14.9964 10.1831C21.6117 10.1831 26.9932 15.5647 26.9932 22.1799C26.9932 28.7948 21.6117 34.1764 14.9964 34.1764Z" fill="white"/>
<path d="M62.6254 34.1787C56.0101 34.1787 50.6285 28.7971 50.6285 22.1819C50.6285 15.567 56.0101 10.1854 62.6254 10.1854V15.9728C59.2013 15.9728 56.416 18.7582 56.416 22.1819C56.416 25.6059 59.2013 28.3912 62.6254 28.3912V34.1787Z" fill="white"/>
<path d="M32.7647 22.0428H26.9773C26.9773 15.4279 32.3589 10.0464 38.9741 10.0464V15.8334C35.5505 15.8334 32.7647 18.6187 32.7647 22.0428Z" fill="white"/>
<path d="M39.0025 33.9117V28.1242C42.4266 28.1242 45.2119 25.3389 45.2119 21.9156H50.9993C50.9993 28.5301 45.6174 33.9117 39.0025 33.9117Z" fill="white"/>
<defs>
<clipPath id="clip0">
<rect width="115" height="33" fill="white" transform="translate(0 52)"/>
</clipPath>
</defs>
</svg>
