<svg width="26" height="25" viewBox="0 0 26 25" fill="none" xmlns="http://www.w3.org/2000/svg">
<path fill-rule="evenodd" clip-rule="evenodd" d="M4.26337 5.02233C3.69283 5.02233 3.2217 5.47663 3.2217 6.02679V18.0804C3.2217 18.6305 3.69283 19.0848 4.26337 19.0848H20.93C21.5006 19.0848 21.9717 18.6305 21.9717 18.0804V6.02679C21.9717 5.47663 21.5006 5.02233 20.93 5.02233H4.26337ZM1.13837 6.02679C1.13837 4.36713 2.54224 3.0134 4.26337 3.0134H20.93C22.6512 3.0134 24.055 4.36713 24.055 6.02679V18.0804C24.055 19.74 22.6512 21.0938 20.93 21.0938H4.26337C2.54224 21.0938 1.13837 19.74 1.13837 18.0804V6.02679Z" fill="#FEFEFE"/>
<path fill-rule="evenodd" clip-rule="evenodd" d="M1.32663 5.45076C1.65655 4.99629 2.30606 4.88577 2.77736 5.20389L12.5967 11.8319L22.416 5.20389C22.8873 4.88577 23.5368 4.99629 23.8667 5.45076C24.1966 5.90523 24.082 6.53154 23.6107 6.84967L13.194 13.8809C12.8354 14.123 12.358 14.123 11.9993 13.8809L1.58264 6.84967C1.11134 6.53154 0.996723 5.90523 1.32663 5.45076Z" fill="#FEFEFE"/>
</svg>
