<?xml version="1.0" encoding="UTF-8" standalone="no"?>
<!DOCTYPE svg PUBLIC "-//W3C//DTD SVG 1.1//EN" "http://www.w3.org/Graphics/SVG/1.1/DTD/svg11.dtd">
<svg width="100%" height="100%" viewBox="0 0 792 612" version="1.1" xmlns="http://www.w3.org/2000/svg" xmlns:xlink="http://www.w3.org/1999/xlink" xml:space="preserve" xmlns:serif="http://www.serif.com/" style="fill-rule:evenodd;clip-rule:evenodd;stroke-linejoin:round;stroke-miterlimit:2;">
    <g id="Pattern">
        <g>
            <text x="297.722px" y="522.702px" style="font-family:'LucidaGrande', 'Lucida Grande', sans-serif;font-weight:500;font-size:6px;fill:rgb(75,48,132);">C<tspan x="303.148px 306.321px 311.389px 316.458px " y="522.702px 522.702px 522.702px 522.702px ">:87%</tspan></text>
            <text x="325.292px" y="522.702px" style="font-family:'LucidaGrande', 'Lucida Grande', sans-serif;font-weight:500;font-size:6px;fill:rgb(75,48,132);">M<tspan x="331.734px 334.907px 339.976px 345.045px " y="522.702px 522.702px 522.702px 522.702px ">:98%</tspan></text>
            <text x="353.984px" y="522.702px" style="font-family:'LucidaGrande', 'Lucida Grande', sans-serif;font-weight:500;font-size:6px;fill:rgb(75,48,132);">Y<tspan x="358.997px 362.17px 367.238px 372.307px " y="522.702px 522.702px 522.702px 522.702px ">:11%</tspan></text>
            <text x="378.56px" y="522.702px" style="font-family:'LucidaGrande', 'Lucida Grande', sans-serif;font-weight:500;font-size:6px;fill:rgb(75,48,132);">K<tspan x="383.751px 386.924px 391.993px " y="522.702px 522.702px 522.702px ">:2%</tspan></text>
            <text x="401.156px" y="522.702px" style="font-family:'LucidaGrande', 'Lucida Grande', sans-serif;font-weight:500;font-size:6px;fill:rgb(75,48,132);">|</text>
            <text x="407.342px" y="522.702px" style="font-family:'LucidaGrande', 'Lucida Grande', sans-serif;font-weight:500;font-size:6px;fill:rgb(75,48,132);">R<tspan x="412.41px 415.583px 420.652px " y="522.702px 522.702px 522.702px ">:75</tspan></text>
            <text x="428.39px" y="522.702px" style="font-family:'LucidaGrande', 'Lucida Grande', sans-serif;font-weight:500;font-size:6px;fill:rgb(75,48,132);">G<tspan x="434px 437.173px 442.242px " y="522.702px 522.702px 522.702px ">:48</tspan></text>
            <text x="450.434px" y="522.702px" style="font-family:'LucidaGrande', 'Lucida Grande', sans-serif;font-weight:500;font-size:6px;fill:rgb(75,48,132);">B<tspan x="455.16px 458.333px 463.401px 468.47px " y="522.702px 522.702px 522.702px 522.702px ">:123</tspan></text>
            <text x="475.202px" y="522.702px" style="font-family:'LucidaGrande', 'Lucida Grande', sans-serif;font-weight:500;font-size:6px;fill:rgb(75,48,132);">|</text>
            <text x="481.388px" y="522.702px" style="font-family:'LucidaGrande', 'Lucida Grande', sans-serif;font-weight:500;font-size:6px;fill:rgb(75,48,132);">P<tspan x="485.979px 491.393px 497.1px 502.169px 508.105px 513.812px " y="522.702px 522.702px 522.702px 522.702px 522.702px 522.702px ">ANTONE</tspan></text>
            <text x="523.376px" y="522.702px" style="font-family:'LucidaGrande', 'Lucida Grande', sans-serif;font-weight:500;font-size:6px;fill:rgb(75,48,132);">7<tspan x="528.445px 533.514px 538.582px " y="522.702px 522.702px 522.702px ">680</tspan></text>
            <text x="546.771px" y="522.702px" style="font-family:'LucidaGrande', 'Lucida Grande', sans-serif;font-weight:500;font-size:6px;fill:rgb(75,48,132);">C</text>
        </g>
        <g transform="matrix(1,0,0,1,429.402,274.336)">
            <path d="M0,0.098L0,0.049C0,-2.435 -1.795,-4.598 -4.425,-4.598C-7.032,-4.598 -8.777,-2.483 -8.777,-0.001L-8.777,0.049C-8.777,2.532 -6.982,4.696 -4.377,4.696C-1.745,4.696 0,2.581 0,0.098M-13.669,0.098L-13.669,0.049C-13.669,-4.893 -9.687,-8.9 -4.377,-8.9C0.934,-8.9 4.868,-4.943 4.868,-0.001L4.868,0.049C4.868,4.99 0.885,8.998 -4.425,8.998C-9.736,8.998 -13.669,5.04 -13.669,0.098" style="fill:white;fill-rule:nonzero;"/>
        </g>
        <g transform="matrix(1,0,0,1,443.708,273.624)">
            <path d="M0,1.524C2.852,1.524 4.72,0 4.72,-2.262L4.72,-2.311C4.72,-4.77 2.876,-6.048 0.098,-6.048L-4.253,-6.048L-4.253,1.524L0,1.524ZM-6.196,-7.843L0.246,-7.843C4.13,-7.843 6.687,-5.779 6.687,-2.386L6.687,-2.336C6.687,1.377 3.59,3.294 -0.074,3.294L-4.253,3.294L-4.253,9.367L-6.196,9.367L-6.196,-7.843Z" style="fill:white;fill-rule:nonzero;"/>
        </g>
        <g transform="matrix(1,0,0,1,453.784,282.991)">
            <path d="M0,-17.21L12.441,-17.21L12.441,-15.44L1.943,-15.44L1.943,-9.564L11.335,-9.564L11.335,-7.794L1.943,-7.794L1.943,-1.77L12.563,-1.77L12.563,0L0,0L0,-17.21Z" style="fill:white;fill-rule:nonzero;"/>
        </g>
        <g transform="matrix(1,0,0,1,470.105,282.991)">
            <path d="M0,-17.21L1.819,-17.21L12.662,-3.418L12.662,-17.21L14.555,-17.21L14.555,0L13.006,0L1.894,-14.112L1.894,0L0,0L0,-17.21Z" style="fill:white;fill-rule:nonzero;"/>
        </g>
        <g transform="matrix(1,0,0,1,416.986,290.85)">
            <path d="M0,12.095L2.655,8.923C4.352,10.276 6.245,10.989 8.236,10.989C9.515,10.989 10.204,10.546 10.204,9.81L10.204,9.76C10.204,9.047 9.638,8.654 7.303,8.112C3.639,7.277 0.811,6.243 0.811,2.703L0.811,2.654C0.811,-0.541 3.344,-2.853 7.474,-2.853C10.4,-2.853 12.687,-2.066 14.555,-0.566L12.17,2.802C10.597,1.696 8.876,1.105 7.351,1.105C6.195,1.105 5.63,1.597 5.63,2.212L5.63,2.261C5.63,3.048 6.22,3.392 8.605,3.933C12.563,4.794 15.022,6.072 15.022,9.293L15.022,9.342C15.022,12.858 12.244,14.948 8.064,14.948C5.016,14.948 2.115,13.989 0,12.095" style="fill:white;fill-rule:nonzero;"/>
        </g>
        <g transform="matrix(1,0,0,1,449.853,296.848)">
            <path d="M0,0.098L0,0.049C0,-3.86 -2.852,-7.056 -6.785,-7.056C-10.719,-7.056 -13.521,-3.909 -13.521,-0L-13.521,0.049C-13.521,3.958 -10.67,7.155 -6.737,7.155C-2.802,7.155 0,4.008 0,0.098M-15.537,0.098L-15.537,0.049C-15.537,-4.697 -11.972,-8.851 -6.737,-8.851C-1.499,-8.851 2.016,-4.745 2.016,-0L2.016,0.049C2.016,4.794 -1.549,8.949 -6.785,8.949C-12.022,8.949 -15.537,4.843 -15.537,0.098" style="fill:white;fill-rule:nonzero;"/>
        </g>
        <g transform="matrix(1,0,0,1,455.553,295.767)">
            <path d="M0,2.532L0,-7.474L1.943,-7.474L1.943,2.41C1.943,6.122 3.91,8.212 7.204,8.212C10.375,8.212 12.391,6.293 12.391,2.532L12.391,-7.474L14.335,-7.474L14.335,2.385C14.335,7.4 11.457,10.006 7.156,10.006C2.901,10.006 0,7.4 0,2.532" style="fill:white;fill-rule:nonzero;"/>
        </g>
        <g transform="matrix(1,0,0,1,481.562,296.725)">
            <path d="M0,0.345C2.582,0.345 4.425,-0.984 4.425,-3.196L4.425,-3.246C4.425,-5.359 2.803,-6.637 0.025,-6.637L-5.285,-6.637L-5.285,0.345L0,0.345ZM-7.228,-8.432L0.172,-8.432C2.287,-8.432 3.983,-7.793 5.064,-6.712C5.901,-5.876 6.393,-4.671 6.393,-3.319L6.393,-3.269C6.393,-0.418 4.425,1.253 1.721,1.745L7.007,8.777L4.622,8.777L-0.368,2.09L-5.285,2.09L-5.285,8.777L-7.228,8.777L-7.228,-8.432Z" style="fill:white;fill-rule:nonzero;"/>
        </g>
        <g transform="matrix(1,0,0,1,491.195,296.848)">
            <path d="M0,0.098L0,0.049C0,-4.819 3.638,-8.851 8.703,-8.851C11.825,-8.851 13.694,-7.745 15.415,-6.122L14.087,-4.697C12.636,-6.072 11.014,-7.056 8.678,-7.056C4.868,-7.056 2.016,-3.959 2.016,-0L2.016,0.049C2.016,4.032 4.892,7.155 8.678,7.155C11.038,7.155 12.588,6.245 14.234,4.671L15.514,5.925C13.719,7.744 11.751,8.949 8.629,8.949C3.662,8.949 0,5.04 0,0.098" style="fill:white;fill-rule:nonzero;"/>
        </g>
        <g transform="matrix(1,0,0,1,509.95,305.503)">
            <path d="M0,-17.21L12.441,-17.21L12.441,-15.44L1.943,-15.44L1.943,-9.564L11.335,-9.564L11.335,-7.794L1.943,-7.794L1.943,-1.77L12.563,-1.77L12.563,0L0,0L0,-17.21Z" style="fill:white;fill-rule:nonzero;"/>
        </g>
        <g transform="matrix(1,0,0,1,416.224,319.361)">
            <path d="M0,0.098L0,0.049C0,-4.966 3.86,-8.9 9.071,-8.9C12.588,-8.9 14.85,-7.425 16.374,-5.311L12.785,-2.532C11.801,-3.762 10.67,-4.548 9.023,-4.548C6.613,-4.548 4.917,-2.508 4.917,-0L4.917,0.049C4.917,2.631 6.613,4.647 9.023,4.647C10.818,4.647 11.875,3.811 12.907,2.556L16.496,5.114C14.875,7.351 12.686,8.998 8.875,8.998C3.958,8.998 0,5.236 0,0.098" style="fill:white;fill-rule:nonzero;"/>
        </g>
        <g transform="matrix(1,0,0,1,450.296,319.361)">
            <path d="M0,0.098L0,0.049C0,-3.86 -2.852,-7.056 -6.785,-7.056C-10.719,-7.056 -13.521,-3.909 -13.521,-0L-13.521,0.049C-13.521,3.958 -10.67,7.155 -6.737,7.155C-2.802,7.155 0,4.008 0,0.098M-15.537,0.098L-15.537,0.049C-15.537,-4.697 -11.972,-8.851 -6.737,-8.851C-1.499,-8.851 2.016,-4.745 2.016,-0L2.016,0.049C2.016,4.794 -1.549,8.949 -6.785,8.949C-12.022,8.949 -15.537,4.843 -15.537,0.098" style="fill:white;fill-rule:nonzero;"/>
        </g>
        <g transform="matrix(1,0,0,1,456.266,328.016)">
            <path d="M0,-17.21L1.943,-17.21L1.943,-1.795L11.629,-1.795L11.629,0L0,0L0,-17.21Z" style="fill:white;fill-rule:nonzero;"/>
        </g>
        <g transform="matrix(1,0,0,1,471.334,328.016)">
            <path d="M0,-17.21L1.943,-17.21L1.943,-1.795L11.629,-1.795L11.629,0L0,0L0,-17.21Z" style="fill:white;fill-rule:nonzero;"/>
        </g>
        <g transform="matrix(1,0,0,1,486.402,328.016)">
            <path d="M0,-17.21L12.441,-17.21L12.441,-15.44L1.943,-15.44L1.943,-9.564L11.335,-9.564L11.335,-7.794L1.943,-7.794L1.943,-1.77L12.563,-1.77L12.563,0L0,0L0,-17.21Z" style="fill:white;fill-rule:nonzero;"/>
        </g>
        <g transform="matrix(1,0,0,1,501.962,319.361)">
            <path d="M0,0.098L0,0.049C0,-4.819 3.638,-8.851 8.703,-8.851C11.825,-8.851 13.694,-7.745 15.415,-6.122L14.087,-4.697C12.636,-6.072 11.014,-7.056 8.678,-7.056C4.868,-7.056 2.016,-3.959 2.016,-0L2.016,0.049C2.016,4.032 4.892,7.155 8.678,7.155C11.038,7.155 12.588,6.245 14.234,4.671L15.514,5.925C13.719,7.744 11.751,8.949 8.629,8.949C3.662,8.949 0,5.04 0,0.098" style="fill:white;fill-rule:nonzero;"/>
        </g>
        <g transform="matrix(1,0,0,1,525.265,326.221)">
            <path d="M0,-13.62L-5.777,-13.62L-5.777,-15.415L7.744,-15.415L7.744,-13.62L1.967,-13.62L1.967,1.795L0,1.795L0,-13.62Z" style="fill:white;fill-rule:nonzero;"/>
        </g>
        <g transform="matrix(1,0,0,1,0,26.822)">
            <rect x="536.669" y="283.984" width="1.943" height="17.21" style="fill:white;"/>
        </g>
        <g transform="matrix(1,0,0,1,542.029,328.138)">
            <path d="M0,-17.332L2.163,-17.332L8.285,-2.507L14.432,-17.332L16.521,-17.332L9.121,0L7.4,0L0,-17.332Z" style="fill:white;fill-rule:nonzero;"/>
        </g>
        <g transform="matrix(1,0,0,1,561.79,328.016)">
            <path d="M0,-17.21L12.441,-17.21L12.441,-15.44L1.943,-15.44L1.943,-9.564L11.335,-9.564L11.335,-7.794L1.943,-7.794L1.943,-1.77L12.563,-1.77L12.563,0L0,0L0,-17.21Z" style="fill:white;fill-rule:nonzero;"/>
        </g>
        <g transform="matrix(1,0,0,1,258.92,313.375)">
            <path d="M0,-32.373C-8.926,-32.373 -16.187,-25.112 -16.187,-16.186C-16.187,-7.261 -8.926,0.001 0,0.001C8.926,0.001 16.187,-7.261 16.187,-16.186C16.187,-25.112 8.926,-32.373 0,-32.373M0,15.087C-17.244,15.087 -31.273,1.058 -31.273,-16.186C-31.273,-33.431 -17.244,-47.46 0,-47.46C17.245,-47.46 31.274,-33.431 31.274,-16.186C31.274,1.058 17.245,15.087 0,15.087" style="fill:white;fill-rule:nonzero;"/>
        </g>
        <g transform="matrix(1,0,0,1,383.084,265.915)">
            <path d="M0,62.547C-17.245,62.547 -31.274,48.518 -31.274,31.273C-31.274,14.029 -17.245,0 0,0L0,15.087C-8.926,15.087 -16.187,22.348 -16.187,31.273C-16.187,40.199 -8.926,47.46 0,47.46L0,62.547Z" style="fill:white;fill-rule:nonzero;"/>
        </g>
        <g transform="matrix(-1,0,0,1,306.348,265.556)">
            <path d="M1.1,31.273L16.187,31.273C16.187,14.029 2.158,0 -15.087,0L-15.087,15.086C-6.162,15.086 1.1,22.347 1.1,31.273" style="fill:white;fill-rule:nonzero;"/>
        </g>
        <g transform="matrix(0,-1,-1,0,351.978,328.563)">
            <path d="M0.001,31.273L15.088,31.273C15.088,22.347 22.349,15.086 31.273,15.086L31.273,-0.001C14.03,-0.001 0.001,14.029 0.001,31.273" style="fill:white;fill-rule:nonzero;"/>
        </g>
        <g transform="matrix(0,-1,-1,0,268.225,504.292)">
            <path d="M-16.5,-16.5C-25.613,-16.5 -33,-9.113 -33,0C-33,9.113 -25.613,16.5 -16.5,16.5C-7.387,16.5 0,9.113 0,0C0,-9.113 -7.387,-16.5 -16.5,-16.5" style="fill:rgb(75,48,132);fill-rule:nonzero;"/>
        </g>
    </g>
</svg>
