<svg width="26" height="25" viewBox="0 0 26 25" fill="none" xmlns="http://www.w3.org/2000/svg">
<g clip-path="url(#clip0)">
<path d="M8.814 22.8125C6.10567 22.8125 3.29317 22.0833 0.793167 20.625C0.3765 20.4167 0.168167 19.8958 0.272334 19.4792C0.3765 19.0625 0.793167 18.75 1.20983 18.75C2.98067 18.8542 4.7515 18.4375 6.314 17.7083C2.45983 15.3125 1.41817 11.9792 1.314 9.375C1.20983 6.35417 2.2515 3.85417 2.35567 3.75C2.45983 3.4375 2.77233 3.125 3.189 3.125C3.60567 3.125 3.91817 3.22917 4.1265 3.54167C5.89733 6.04167 8.60567 7.60417 11.6265 7.8125C11.6265 6.14583 12.3557 4.58333 13.6057 3.4375C15.7932 1.5625 19.0223 1.5625 21.2098 3.4375C22.0432 3.125 22.8765 2.70833 23.6057 2.1875C23.9182 1.97917 24.439 1.97917 24.7515 2.1875C25.064 2.39583 25.2723 2.91667 25.1682 3.33333C24.8557 4.79167 24.1265 6.14583 23.0848 7.29167C23.0848 7.5 23.0848 7.60417 23.0848 7.8125C23.0848 13.5417 20.5848 18.3333 16.1057 20.8333C13.9182 22.1875 11.4182 22.8125 8.814 22.8125ZM5.3765 20.3125C8.814 21.1458 12.2515 20.7292 15.1682 19.0625C18.9182 16.875 21.1057 12.7083 21.1057 7.8125C21.1057 7.60417 21.1057 7.39583 21.0015 7.1875C20.8973 6.875 21.0015 6.45833 21.314 6.25C21.5223 6.04167 21.7307 5.72917 21.939 5.52083C21.7307 5.625 21.4182 5.72917 21.2098 5.72917C20.7932 5.83333 20.3765 5.72917 20.1682 5.41667C18.814 3.95833 16.5223 3.75 15.064 5.10417C14.1265 5.72917 13.7098 6.77083 13.7098 7.8125V8.85417C13.7098 9.375 13.2932 9.89583 12.6682 9.89583C9.23067 10 6.0015 8.64583 3.70983 6.25C3.08483 8.95833 2.8765 14.0625 8.91817 16.6667C9.23067 16.875 9.54317 17.1875 9.54317 17.6042C9.54317 18.0208 9.439 18.3333 9.1265 18.5417C7.8765 19.375 6.6265 20 5.3765 20.3125Z" fill="#FEFEFE"/>
</g>
<defs>
<clipPath id="clip0">
<rect width="25" height="25" fill="white" transform="translate(0.168152)"/>
</clipPath>
</defs>
</svg>
